SplineFontDB: 3.0
FontName: aerosolmenace
FullName: Aerosol Menace
FamilyName: aerosol menace
Weight: regular
Copyright: (c) 1997-2016 - Terrence Curran http://grilledcheese.com
Version: v2016-02-28
ItalicAngle: 0
UnderlinePosition: -113
UnderlineWidth: 20
Ascent: 800
Descent: 200
InvalidEm: 0
sfntRevision: 0x00010000
LayerCount: 3
Layer: 0 0 "Back" 1
Layer: 1 0 "Fore" 0
Layer: 2 0 "Back 2" 1
XUID: [1021 270 -1463357204 11132049]
UniqueID: 4029744
FSType: 4
OS2Version: 3
OS2_WeightWidthSlopeOnly: 0
OS2_UseTypoMetrics: 1
CreationTime: 1424494020
ModificationTime: 1461869070
PfmFamily: 17
TTFWeight: 400
TTFWidth: 5
LineGap: 0
VLineGap: 0
Panose: 2 0 0 0 0 0 0 0 0 0
OS2TypoAscent: 800
OS2TypoAOffset: 0
OS2TypoDescent: -200
OS2TypoDOffset: 0
OS2TypoLinegap: 0
OS2WinAscent: 1000
OS2WinAOffset: 0
OS2WinDescent: 0
OS2WinDOffset: 0
HheadAscent: 800
HheadAOffset: 0
HheadDescent: -200
HheadDOffset: 0
OS2SubXSize: 650
OS2SubYSize: 600
OS2SubXOff: 0
OS2SubYOff: 75
OS2SupXSize: 650
OS2SupYSize: 600
OS2SupXOff: 0
OS2SupYOff: 350
OS2StrikeYSize: 20
OS2StrikeYPos: 300
OS2CapHeight: 0
OS2XHeight: 0
OS2Vendor: 'pyrs'
OS2CodePages: 20000001.00000000
OS2UnicodeRanges: 00000003.00000000.00000000.00000000
Lookup: 258 0 0 "'kern' Horizontal Kerning in Latin lookup 0" { "'kern' Horizontal Kerning in Latin lookup 0 subtable"  } ['kern' ('latn' <'dflt' > ) ]
MarkAttachClasses: 1
DEI: 91125

StartChar: exclam
Encoding: 33 33 2
Width: 648
Flags: W
HStem: 21 106<211.449 429.061> 145 45<339 358.488> 145 18<180 239.578 354.379 424.7> 149 12<204.341 240 252.762 265 381.3 438.271> 207 70<374.617 424.86> 208 36<420.682 439.722> 228 49<348.827 378.997> 249 28<418.207 439.952> 293 15<234 390> 352 29<279.187 289> 430 44<280.414 327.913> 430 13<232 240.859> 554 57<305.961 370.574>
VStem: 14 130<208.935 293> 158 97<226.204 262.666> 158 84<230.109 268.91> 158 37<181.092 221.062> 158 22<166 184.812> 265 36<161 171.858 172.568 224.861> 278 23<216.231 259.673> 379 39<211.549 227.996> 423 44<214.044 243.999> 460 7<189.249 205.529> 481 134<209.448 293>
LayerCount: 3
Back
Fore
SplineSet
615 316 m 0x80cc09
 615 157 484 21 321 21 c 0
 315 21 320 21 313 21 c 0
 151 21 14 171 14 302 c 0
 14 457 131 611 311 611 c 0
 473 611 615 480 615 316 c 0x80cc09
390 393 m 0
 390 440 353 479 294 487 c 1
 322 507 348 525 374 545 c 0
 372 548 371 552 368 554 c 1
 360 554 l 1
 303 537 226 494 206 472 c 1
 220 469 l 1
 228 474 238 482 244 482 c 0
 250 482 247 480 247 480 c 1
 242 470 232 458 232 452 c 2
 232 443 l 1
 235 443 238 443 241 440 c 1
 247 446 251 454 259 456 c 1
 263 449 266 439 266 433 c 0
 266 426 264 430 261 427 c 0
 247 427 223 430 218 430 c 1
 218 430 201 429 193 421 c 1
 199 415 l 1
 219 412 259 416 259 395 c 0
 259 391 258 386 255 381 c 1x80de09
 262 381 271 380 279 380 c 0
 283 380 286 380 289 381 c 1
 289 352 l 1
 266 346 254 355 232 334 c 1
 234 312 l 1
 275 311 299 308 330 308 c 0
 347 308 366 309 390 311 c 1
 390 326 l 2
 390 331 380 339 374 341 c 1
 382 361 390 387 390 393 c 0
144 135 m 1
 481 127 l 1
 481 293 l 1
 144 293 l 1
 144 135 l 1
343 429 m 2
 343 413 l 1
 338 410 332 409 326 409 c 0
 290 409 330 430 285 430 c 0
 278 430 282 430 279 428 c 1
 280 435 276 474 298 474 c 0x80ec09
 314 474 343 446 343 429 c 2
467 277 m 1xa1cc0b
 467 145 l 1
 323 145 l 1
 321 148 317 153 317 159 c 0
 317 164 319 170 319 216 c 0
 319 231 318 251 318 277 c 1
 467 277 l 1xa1cc0b
301 281 m 1x90cc59
 301 149 l 1
 158 149 l 1
 158 281 l 1
 301 281 l 1x90cc59
460 198 m 0xa0cc0b
 460 211 435 216 423 227 c 1
 423 240 l 1
 426 242 426 244 433 244 c 0
 438 244 438 245 440 242 c 1
 439 246 436 249 430 249 c 0
 424 249 418 239 418 233 c 0
 418 222 423 218 429 215 c 0
 443 209 455 205 455 198 c 0
 455 192 451 192 448 189 c 1
 434 205 429 208 425 208 c 0xa5cc0d
 422 208 420 207 417 207 c 0x88cc0d
 411 207 387 202 374 202 c 1
 376 205 379 211 379 217 c 0
 379 223 375 228 364 228 c 0
 351 228 354 207 339 190 c 1xc2cc0d
 349 188 356 194 364 185 c 1
 361 175 359 164 354 159 c 1
 362 162 375 163 381 163 c 0
 387 163 419 156 425 156 c 0
 430 156 460 187 460 198 c 0xa0cc0b
286 260 m 0
 288 268 276 270 274 267 c 0
 269 259 269 250 262 244 c 1
 257 252 253 267 246 269 c 0
 243 267 242 270 242 263 c 0x94cd19
 242 256 255 241 255 237 c 2
 255 230 l 1x94ce09
 236 224 195 229 195 193 c 0
 195 191 195 190 195 188 c 1x94cc89
 191 183 183 183 178 181 c 1
 178 173 180 169 180 166 c 1
 193 166 193 169 199 169 c 0
 206 169 207 161 213 161 c 2
 240 161 l 1
 237 164 232 167 229 170 c 1
 234 178 238 185 243 187 c 1
 248 180 251 168 256 161 c 1
 265 161 l 1x94cc69
 265 164 260 169 261 172 c 0
 264 184 269 204 269 216 c 1
 273 221 278 222 278 225 c 0x94cc19
 276 230 272 237 274 242 c 0
 276 247 284 253 286 260 c 0
EndSplineSet
Validated: 1
Layer: 2
EndChar

StartChar: quotedbl
Encoding: 34 34 3
Width: 625
Flags: HMW
HStem: 18 220<307.5 311> 18 322<305 311> 21 171<333 479> 21 173<364 412 364 419> 21 241<410 419> 21 248<333 374 257 419> 21 277<333 336 304 419> 458 130<245 407 245 418>
VStem: 34 60<272 296 272 390> 34 73<345 345 345 390> 34 125<340 349 349 390> 34 204<262.5 397> 34 292<337 388 337 390> 316 286<340 378 244.5 393 244.5 393> 485 117<332 378 244.5 388 244.5 388> 539 63<262 292 292 313.5>
LayerCount: 3
Back
Fore
SplineSet
602 304 m 0x0941
 602 185 502 21 336 21 c 0
 330 21 314 18 308 18 c 0x4109
 302 18 258 27 237 33 c 0
 91 71 34 217 34 308 c 0
 34 472 168 588 322 588 c 0
 479 588 602 452 602 304 c 0x0941
508 394 m 1
 497 439 463 458 426 458 c 0
 423 458 421 458 418 458 c 1
 418 396 l 1
 499 396 l 2
 505 396 505 396 508 394 c 1
333 467 m 1
 457 467 l 1
 416 498 373 512 333 518 c 1
 332 508 331 497 331 486 c 0
 331 480 332 473 333 467 c 1
495 329 m 1
 534 329 l 1
 529 347 523 367 518 383 c 1
 494 383 l 2
 495 382 495 381 495 379 c 0
 495 375 494 369 494 358 c 0
 494 350 494 341 495 329 c 1
410 262 m 1
 539 262 l 1x0941
 539 292 l 2
 539 315 533 319 511 319 c 0
 501 319 488 318 471 318 c 0
 455 318 435 318 410 321 c 1
 410 262 l 1
485 332 m 1
 485 388 l 1
 482 387 477 386 466 386 c 0
 444 386 403 388 326 388 c 1
 327 382 328 374 328 366 c 0
 328 358 327 348 326 337 c 1
 480 329 l 2
 486 329 485 332 485 332 c 1
407 407 m 2
 407 458 l 1
 237 466 l 1
 238 458 239 447 239 431 c 0
 239 422 239 410 238 397 c 1x110a
 241 401 l 1
 247 401 255 401 263 401 c 0
 293 401 338 400 401 396 c 0
 404 399 407 401 407 407 c 2
195 472 m 1
 322 472 l 1x2111
 322 482 322 494 320 518 c 1
 298 518 l 2
 277 518 195 490 195 472 c 1
536 189 m 1
 538 200 538 210 538 221 c 0
 538 232 538 242 536 251 c 1
 534 250 530 249 523 249 c 0
 516 249 505 250 488 251 c 1
 488 189 l 1
 491 190 495 191 500 191 c 0
 507 191 518 190 536 189 c 1
479 253 m 1
 472 252 464 252 452 252 c 0
 440 252 424 252 402 253 c 1
 413 232 421 210 426 192 c 1
 479 192 l 1
 478 194 478 197 478 202 c 0
 478 210 478 225 479 253 c 1
231 468 m 1
 228 468 225 467 222 467 c 0
 212 467 201 469 196 469 c 0
 171 469 144 426 138 406 c 1
 231 406 l 1
 230 408 229 414 229 424 c 0
 229 434 230 448 231 468 c 1
402 328 m 1
 390 324 379 322 366 322 c 0
 340 322 305 328 233 328 c 1
 233 328 233 327 233 326 c 0
 233 323 233 316 233 298 c 0
 233 291 233 282 233 272 c 1
 243 272 l 1
 262 294 296 298 312 298 c 0x0341
 360 298 376 276 399 264 c 1
 399 267 402 269 402 328 c 1
159 340 m 1
 316 340 l 1x4124
 316 350 317 362 317 375 c 0
 317 381 317 387 316 393 c 1
 159 393 l 1
 159 378 159 358 159 340 c 1
257 269 m 1
 374 269 l 1x0541
 356 275 337 290 315 290 c 0
 306 290 262 276 257 269 c 1
415 186 m 1
 410 186 403 185 388 185 c 0
 381 185 372 185 361 186 c 1
 361 173 361 161 359 130 c 1
 365 131 371 131 377 131 c 0
 390 131 402 130 412 130 c 1
 412 135 412 142 415 186 c 1
364 194 m 1x1141
 412 194 l 1x1141
 412 204 l 2
 412 204 412 205 412 205 c 0
 412 254 365 260 321 260 c 0
 308 260 295 259 283 259 c 0
 280 259 269 260 259 260 c 0
 252 260 244 259 240 258 c 0
 232 256 211 219 211 207 c 0
 211 201 211 202 214 199 c 2
 264 199 l 1
 270 221 301 238 314 238 c 0x8141
 330 238 360 221 364 194 c 1x1141
107 345 m 1
 148 345 l 1
 149 354 150 367 150 378 c 0
 150 385 149 391 148 396 c 1
 131 396 l 1
 121 383 108 356 107 345 c 1
226 324 m 0
 226 330 220 329 218 331 c 2
 210 331 l 2
 203 331 126 334 120 334 c 0
 101 334 94 317 94 296 c 2x1181
 94 272 l 1
 98 276 108 278 123 278 c 0
 148 278 186 274 226 273 c 1
 222 277 221 283 221 289 c 0
 221 301 226 315 226 324 c 0
226 258 m 1
 224 258 222 259 201 259 c 0
 190 259 175 259 153 258 c 1
 153 202 l 1
 202 202 l 1
 205 222 211 240 226 258 c 1
214 137 m 1
 265 137 l 1
 265 191 l 1
 261 190 256 190 251 190 c 0
 241 190 229 191 214 191 c 1
 212 182 212 172 212 162 c 0
 212 152 212 143 214 137 c 1
146 258 m 1
 140 264 l 1
 89 264 l 2
 90 263 90 262 90 258 c 0
 90 251 89 237 89 202 c 1
 94 204 102 204 111 204 c 0
 121 204 132 204 145 202 c 1
 144 211 142 221 142 231 c 0
 142 241 144 250 146 258 c 1
EndSplineSet
Validated: 1
Layer: 2
EndChar

StartChar: numbersign
Encoding: 35 35 4
Width: 628
Flags: HMW
HStem: 18 101<387.5 391> 18 109<241 267 211 391> 18 161<241 484> 18 169<241 270 195.5 391> 18 207<307 313 307 391> 18 236<255 384 255 391> 18 241<94 391> 18 272<327 327 327 391>
VStem: 29 62<266 291 266 379.5> 29 184<189.5 379.5> 29 298<290 310 290 379.5> 29 311<215 431> 319 99<296 305 249 315 249 315> 484 130<211.5 240 240 240> 534 80<313 313> 547 67<249 279 279 281.5>
LayerCount: 3
Back
Fore
SplineSet
614 296 m 0x204a
 614 127 463 18 319 18 c 0
 163 18 29 134 29 296 c 0
 29 463 175 570 321 570 c 0
 462 570 614 461 614 296 c 0x204a
418 249 m 1
 547 249 l 1x2089
 547 279 l 2
 547 284 541 298 539 305 c 1
 516 306 488 307 462 307 c 0
 446 307 431 307 418 305 c 1
 418 249 l 1
544 179 m 1
 544 191 545 205 545 219 c 0
 545 225 545 232 544 238 c 1
 533 238 522 238 511 238 c 0
 506 238 501 238 496 238 c 1
 493 179 l 1
 501 178 510 177 519 177 c 0
 528 177 536 178 544 179 c 1
534 313 m 1
 532 367 447 442 396 455 c 0
 370 461 325 466 319 466 c 0
 313 466 279 463 263 460 c 0
 208 448 131 395 107 330 c 1
 110 324 l 1
 304 324 l 1
 285 334 259 345 246 368 c 1
 242 365 l 2
 234 357 226 355 221 355 c 0
 213 355 195 357 195 379 c 0
 195 383 200 406 217 406 c 0
 223 406 233 405 237 401 c 0
 240 397 246 391 248 388 c 1
 252 395 263 405 269 408 c 0
 290 419 324 438 330 438 c 0
 337 438 338 434 340 431 c 2x108a
 340 418 l 1
 332 414 325 407 317 402 c 1
 356 407 425 412 432 412 c 0
 437 412 442 412 444 411 c 0
 447 409 451 405 454 402 c 2
 454 393 l 1
 426 379 397 378 368 374 c 1
 392 369 419 365 442 359 c 0
 449 357 451 351 451 346 c 0
 451 335 447 331 432 331 c 0
 425 331 350 343 314 349 c 1
 322 344 333 329 335 321 c 1
 528 316 l 2
 534 316 534 313 534 313 c 1
436 179 m 1
 484 179 l 1x208c
 484 240 l 1
 469 240 452 241 437 241 c 0
 429 241 422 241 415 240 c 1
 428 222 431 195 436 179 c 1
407 254 m 1x0422
 407 310 l 1
 327 310 l 1
 327 290 l 1x0122
 357 288 387 271 407 254 c 1x0422
255 254 m 1
 384 254 l 1x048a
 374 262 360 271 349 273 c 0
 341 276 323 277 318 277 c 0
 311 277 304 277 299 276 c 0
 285 272 262 265 255 254 c 1
319 296 m 1
 319 315 l 1
 301 314 286 314 274 314 c 0
 251 314 240 315 237 315 c 1
 237 301 236 287 236 277 c 0
 236 272 236 267 237 264 c 1
 260 281 305 289 319 296 c 1
417 125 m 1
 416 169 l 1
 412 169 408 168 402 168 c 0
 394 168 382 169 364 170 c 1
 364 158 363 145 361 122 c 1
 371 120 385 119 390 119 c 0x804a
 396 119 410 120 417 125 c 1
420 190 m 0
 420 197 410 222 404 235 c 0
 402 238 399 241 396 242 c 0
 340 246 269 249 264 249 c 0
 234 249 213 217 213 193 c 0
 213 186 216 187 216 187 c 1x208a
 270 187 l 1
 270 201 292 220 303 222 c 0
 305 223 304 225 310 225 c 0x088a
 316 225 326 223 333 222 c 0
 346 220 366 197 366 184 c 0
 366 183 366 183 366 182 c 1
 382 182 407 181 417 179 c 1x108a
 417 181 420 184 420 190 c 0
94 259 m 1
 226 259 l 1x028a
 226 271 227 284 227 297 c 0
 227 303 227 310 226 316 c 1
 134 318 l 2
 100 318 91 313 91 269 c 0
 91 263 92 264 94 259 c 1
223 248 m 1
 215 248 206 248 151 251 c 1
 152 246 153 237 153 226 c 0
 153 215 152 202 151 187 c 1x108a
 154 188 157 188 161 188 c 0
 171 188 183 186 187 186 c 0
 194 186 194 187 197 187 c 0
 204 207 214 233 223 248 c 1
267 127 m 1
 267 175 l 1
 264 174 260 174 255 174 c 0
 246 174 233 175 211 175 c 1
 212 174 212 173 212 170 c 0
 212 165 211 153 211 127 c 1
 229 127 249 127 267 127 c 1
145 189 m 1
 144 198 143 207 143 218 c 0
 143 228 144 239 145 253 c 1
 144 252 143 252 140 252 c 0
 133 252 120 253 89 253 c 1
 90 248 91 242 91 233 c 0
 91 224 90 210 89 189 c 1
 93 190 99 191 108 191 c 0
 117 191 129 190 145 189 c 1
EndSplineSet
Validated: 1
Layer: 2
EndChar

StartChar: zero
Encoding: 48 48 13
Width: 1000
Flags: W
HStem: 20 45<852.869 893.772> 99 38<178.665 221.58 397.072 503.167> 193 46<217 227.663> 224 46<521 531.165> 236 46<696 757 817 823> 291 45<13 142 193 336> 377 45<134 152> 385 45<406 477.084> 461 44<698 711.172>
VStem: 102 44<422.673 501> 128 47<137.153 289.461> 229 44<140.862 211.388> 339 45<149.779 256.136> 483 46<430.616 508.4> 532 43<161.61 241.686> 660 45<421.305 460.484> 710 47<421.422 459> 801 49<65.6356 113.172> 818 41<282.326 348.524> 901 45<69.693 133.679>
LayerCount: 3
Back
Fore
SplineSet
147 336 m 1xe6bf90
 152 377 l 1
 44 377 l 1
 69 406 102 436 102 477 c 0
 102 484 101 492 98 500 c 1
 141 513 l 1
 144 502 146 491 146 479 c 0xe6df90
 146 460 142 440 134 422 c 1
 202 422 l 1
 193 336 l 1
 336 336 l 1
 336 291 l 1
 188 291 l 1
 176 189 l 2
 175 186 175 182 175 179 c 0
 175 161 182 137 196 137 c 0
 203 137 212 142 222 156 c 0
 225 159 229 172 229 181 c 0
 229 188 227 193 221 193 c 0
 219 193 218 193 217 193 c 1
 206 237 l 1
 212 239 218 239 223 239 c 0
 257 239 273 210 273 178 c 0
 273 161 269 144 259 130 c 0
 248 115 215 99 184 99 c 0
 155 99 128 114 128 160 c 0
 128 170 129 182 132 196 c 1
 142 291 l 1
 13 291 l 1
 13 336 l 1
 147 336 l 1xe6bf90
480 507 m 1
 523 521 l 1
 527 509 529 497 529 485 c 0
 529 448 511 414 486 385 c 1
 406 385 l 1
 385 196 l 1
 384 192 384 188 384 185 c 0
 384 155 413 139 446 139 c 0
 475 139 506 151 524 175 c 0
 528 181 532 194 532 205 c 0
 532 213 530 220 525 224 c 0
 524 224 523 225 521 224 c 2
 511 268 l 1
 516 269 521 270 525 270 c 0
 559 270 575 237 575 202 c 0
 575 183 570 164 560 150 c 0
 533 112 489 95 448 95 c 0
 391 95 339 127 339 183 c 0
 339 190 339 197 341 204 c 1
 366 430 l 1
 465 430 l 1xd59f90
 478 447 483 467 483 485 c 0
 483 493 482 500 480 507 c 1
448 238 m 1
 449 237 l 1
 427 198 l 1
 409 208 402 222 402 237 c 0
 402 245 405 254 409 262 c 0
 431 300 498 339 535 366 c 0
 542 370 545 373 546 374 c 2
 579 344 l 1
 568 332 551 322 538 313 c 0
 518 300 456 260 448 238 c 1
705 421 m 1
 709 430 l 2
 711 435 714 453 710 459 c 0
 709 459 706 460 699 461 c 2
 698 461 l 1
 702 450 705 438 705 426 c 0
 705 425 705 423 705 421 c 1
750 411 m 1
 768 411 l 1
 804 282 l 1
 823 282 l 1
 819 294 818 306 818 319 c 0
 818 334 820 349 826 360 c 1
 866 343 l 1
 861 332 859 319 859 308 c 0xcc9fb0
 859 295 861 284 864 279 c 2
 884 236 l 1
 817 236 l 1
 851 114 l 1
 850 111 850 108 850 105 c 0
 850 87 859 65 874 65 c 0
 879 65 885 67 891 73 c 0
 895 76 901 93 901 105 c 0
 901 111 899 115 894 115 c 0
 893 115 892 115 891 115 c 1
 880 158 l 1
 887 160 893 160 898 160 c 0
 932 160 946 131 946 101 c 0
 946 83 941 65 932 52 c 0
 921 36 888 20 857 20 c 0
 828 20 801 36 801 82 c 0
 801 91 802 102 804 113 c 1
 771 236 l 1
 676 236 l 1
 619 103 l 1
 578 121 l 1
 633 256 l 1
 633 281 l 1
 645 282 l 1xcc9fd0
 681 366 l 1
 618 366 l 1
 649 401 660 415 660 431 c 0
 660 446 650 462 638 500 c 1
 656 502 676 505 693 505 c 0
 728 505 757 495 757 451 c 0
 757 441 755 429 752 416 c 1
 750 411 l 1
731 366 m 1
 696 282 l 1
 757 282 l 1
 734 366 l 1
 731 366 l 1
EndSplineSet
Validated: 1
Layer: 2
EndChar

StartChar: A
Encoding: 65 65 28
Width: 661
Flags: W
HStem: -206 163<585 679> -37 146<43.208 156> 174 79<335 390> 443 183<472 574>
VStem: 226 348<443.325 534> 265 70<268.243 294.75> 287 124<557.211 655.38>
LayerCount: 3
Back
Fore
SplineSet
585 -43 m 1xf8
 734 -43 l 1
 679 -206 l 1
 658 -206 545 -206 545 -206 c 1
 504 -196 454 -169 448 -126 c 2
 402 174 l 1
 320 174 l 1
 284 4 l 1
 247 -37 l 1
 71 -37 l 1
 31 -21 23 24 23 65 c 0
 23 81 24 97 25 109 c 1
 156 110 l 1
 232 249 l 1
 258 288 265 317 265 340 c 0xf4
 265 366 256 386 256 407 c 1
 245 416 226 424 226 449 c 0xf8
 226 457 228 465 232 477 c 1
 281 556 l 1
 285 582 287 597 287 608 c 0
 287 631 276 638 238 694 c 1
 411 736 l 1
 411 533 l 1xf2
 472 626 l 1
 634 626 l 1
 585 604 574 555 574 513 c 0
 574 477 582 447 582 443 c 1
 466 443 l 1
 585 -43 l 1xf8
335 253 m 1
 390 253 l 1
 363 420 l 1
 335 253 l 1
EndSplineSet
Validated: 1
Layer: 2
EndChar

StartChar: B
Encoding: 66 66 29
Width: 559
Flags: HMW
HStem: 638 20G<136 263 263 263>
LayerCount: 3
Back
Fore
SplineSet
311 364 m 1
 446 412 l 1
 413 535 l 1
 367 463 323 459 259 435 c 1
 256 420 255 407 255 394 c 0
 255 324 290 279 344 268 c 1
 311 364 l 1
357 237 m 1
 300 135 l 1
 392 66 l 1
 393 66 393 66 394 66 c 0
 418 66 433 94 433 122 c 0
 433 151 417 180 380 180 c 0
 379 180 378 180 377 180 c 1
 357 237 l 1
368 -3 m 1
 275 94 l 1
 254 54 l 1
 308 3 l 1
 272 -54 l 1
 88 -54 l 1
 59 -35 42 0 42 34 c 0
 42 53 47 71 58 87 c 1
 151 87 l 1
 214 199 l 1
 145 214 130 318 130 376 c 0
 130 378 130 380 130 382 c 1
 106 409 l 1
 157 439 l 1
 159 456 160 472 160 486 c 0
 160 553 136 592 91 622 c 1
 136 658 l 1
 263 658 l 1
 261 526 l 1
 335 634 l 1
 518 634 l 1
 514 623 513 613 513 603 c 0
 513 569 534 543 557 538 c 1
 518 349 l 1
 383 349 l 1
 533 180 l 1
 488 -12 l 1
 368 -3 l 1
EndSplineSet
Validated: 1
Layer: 2
EndChar

StartChar: C
Encoding: 67 67 30
Width: 556
Flags: W
HStem: -34 21G<170 269.714> 492 179<362 424.736> 642 20G<516.5 541>
VStem: 68 133<197 473.658> 420 51<397 490.967>
LayerCount: 3
Back
Fore
SplineSet
107 610 m 1xd8
 107 610 128 638 128 665 c 0
 128 674 126 682 120 689 c 1
 255 689 l 1
 255 660 l 1
 285 667 310 671 333 671 c 0xd8
 385 671 425 653 478 619 c 1
 489 635 512 653 521 662 c 1xb8
 556 627 l 1
 544 618 533 604 523 589 c 1
 552 570 l 1
 538 551 514 518 495 492 c 1
 482 492 l 1
 475 465 471 439 471 416 c 0
 471 409 471 403 472 397 c 1
 423 397 l 1
 421 407 420 419 420 432 c 0
 420 452 422 475 428 492 c 1
 362 492 l 1
 346 529 l 1
 314 543 l 1
 285 502 247 476 201 469 c 1
 201 197 l 1
 284 139 l 1
 331 171 l 1
 332 142 351 117 379 95 c 1
 407 133 l 1
 537 133 l 1
 462 1 l 1
 286 1 l 1
 248 -34 l 1
 170 -33 l 17
 176 -28 179 -3 179 -3 c 1
 176 58 137 110 68 110 c 1
 69 550 l 1
 40 578 l 2
 42 579 107 610 107 610 c 1xd8
EndSplineSet
Validated: 1
Layer: 2
EndChar

StartChar: D
Encoding: 68 68 31
Width: 571
Flags: W
HStem: -54 130<56.623 135> -13 79<382 419.986> 653 20G<121.243 186.261>
VStem: 121 128<288.802 382>
LayerCount: 3
Back
Fore
SplineSet
255 98 m 1x70
 244 54 l 1
 298 3 l 1
 262 -54 l 1
 79 -54 l 1
 54 -38 43 -14 43 12 c 0
 43 33 50 56 64 76 c 1
 135 76 l 1xb0
 187 221 l 1
 139 241 121 322 121 378 c 0
 121 379 121 381 121 382 c 1
 97 409 l 1
 148 439 l 1
 150 454 151 468 151 480 c 0
 151 545 122 569 76 599 c 1
 138 673 l 1
 249 627 l 1
 249 526 l 1
 325 634 l 1
 509 634 l 1
 505 623 504 613 504 603 c 0
 504 569 525 543 548 538 c 1
 501 430 l 1
 568 268 l 1
 547 178 l 1
 479 -12 l 1
 360 -13 l 1
 255 98 l 1x70
269 151 m 1
 382 66 l 1
 383 66 383 66 384 66 c 0x70
 413 66 436 104 436 136 c 0
 436 159 424 178 394 178 c 0
 393 178 392 178 391 178 c 1
 483 295 l 1
 360 513 l 1
 360 513 314 473 250 438 c 1
 250 436 l 1
 249 411 249 391 249 374 c 0
 249 287 259 302 298 261 c 1
 269 151 l 1
EndSplineSet
Validated: 1
Layer: 2
EndChar

StartChar: E
Encoding: 69 69 32
Width: 593
Flags: HMW
HStem: -34 127<78 132 34 245 78 78> 1 132<403 525 282 599> 448 215<358 491 358 358>
VStem: 105 125
LayerCount: 3
Back
Fore
SplineSet
116 645 m 1xb0
 251 645 l 1
 251 615 l 1
 350 663 l 1
 531 663 l 1
 516 639 510 615 510 594 c 0
 510 555 530 525 548 517 c 1
 532 500 521 475 491 448 c 1
 358 448 l 1
 326 511 l 1
 259 489 230 407 230 347 c 0
 230 319 236 296 248 286 c 1
 349 332 l 1
 389 246 l 1
 386 246 383 246 380 246 c 0
 245 246 251 115 248 93 c 1
 375 93 l 1
 403 133 l 1xb0
 599 133 l 1
 525 1 l 1
 282 1 l 1
 245 -34 l 1x70
 78 -34 l 1
 40 -20 32 20 32 56 c 0
 32 70 33 82 34 93 c 1
 132 93 l 1
 208 220 l 1
 140 223 129 264 129 302 c 0
 129 321 132 338 132 350 c 1
 122 358 104 390 104 425 c 0
 104 436 106 447 110 457 c 1
 156 526 l 1
 160 549 163 561 163 571 c 0
 163 590 152 597 116 645 c 1xb0
EndSplineSet
Validated: 1
Layer: 2
EndChar

StartChar: F
Encoding: 70 70 33
Width: 478
Flags: HMW
HStem: -37 130<79 98 36 111 79 79> 246 86<186 323> 450 197 450 199 656 20G<262 262>
LayerCount: 3
Back
Fore
SplineSet
111 -37 m 1xd8
 79 -37 l 1
 42 -23 34 17 34 54 c 0
 34 68 35 82 36 93 c 1
 98 93 l 1
 138 233 l 1
 80 235 68 253 68 274 c 0
 68 290 75 308 75 323 c 1
 74 323 72 323 71 323 c 0
 59 323 47 331 47 347 c 0
 47 355 50 364 57 375 c 1
 105 531 l 1
 57 543 40 554 40 582 c 0
 40 594 43 610 49 631 c 1
 184 631 l 1
 184 601 l 1
 262 676 l 1
 302 652 357 647 404 647 c 0xe8
 426 647 446 648 463 649 c 1
 456 624 452 599 452 577 c 0
 452 539 463 511 481 504 c 1
 464 486 445 476 415 450 c 1
 289 450 l 1
 244 492 l 1
 184 473 162 430 162 392 c 0
 162 367 171 345 186 332 c 1
 282 332 l 1
 323 246 l 1
 320 246 317 246 314 246 c 0
 214 246 202 174 202 128 c 0
 202 113 203 101 203 95 c 0
 203 70 208 30 241 1 c 1
 212 1 93 1 93 1 c 1
 111 -37 l 1xd8
EndSplineSet
Validated: 1
Layer: 2
EndChar

StartChar: G
Encoding: 71 71 34
Width: 579
Flags: HMW
HStem: 1 259<333 396 177 508> 145 115<387 471 387 387>
VStem: 64 133<197 425 197 505 197 505> 64 263<171 171 171 505> 177 297
LayerCount: 3
Back
Fore
SplineSet
64 505 m 1x88
 36 534 l 1
 111 618 l 1
 151 586 l 1
 228 614 282 627 327 627 c 0
 380 627 421 609 474 574 c 1
 484 591 508 609 517 618 c 1
 552 583 l 1
 503 543 467 444 467 374 c 0
 467 366 467 359 468 352 c 1
 419 355 l 1
 416 366 415 378 415 390 c 0
 415 411 419 433 428 450 c 1
 318 511 l 1
 288 470 243 431 197 425 c 1xa0
 197 197 l 1
 281 139 l 1
 327 171 l 1x88
 328 133 361 102 402 76 c 1
 471 145 l 1
 387 145 l 1
 383 195 381 214 333 260 c 1
 508 260 l 1
 583 179 l 1
 505 99 474 20 474 -40 c 0
 474 -77 486 -107 506 -123 c 1
 422 -161 l 1
 367 -112 l 1
 396 1 l 1x50
 177 1 l 1
 174 61 134 110 64 110 c 1xa0
 64 505 l 1x88
EndSplineSet
Validated: 1
Layer: 2
EndChar

StartChar: H
Encoding: 72 72 35
Width: 507
Flags: W
HStem: -48 21G<329 495> 635 20G<482.556 490.5>
VStem: 71 172<529.441 641> 101 142<448 528> 153 90<338 401> 340 103<175.217 300.575>
LayerCount: 3
Back
Fore
SplineSet
345 393 m 1xcc
 291 448 l 1
 294 540 l 1
 299 672 l 1
 363 721 l 1
 390 683 450 653 481 653 c 0
 485 653 489 654 492 655 c 1
 458 583 l 1
 454 513 443 389 443 266 c 0
 443 143 454 20 495 -48 c 1
 340 -48 l 1
 318 -44 313 6 313 61 c 0
 313 77 313 94 314 110 c 1
 325 128 331 154 343 174 c 1
 341 200 340 223 340 243 c 0
 340 267.8 341.28 286.2 341.28 296.664 c 0
 341.28 299.28 341.2 301.4 341 303 c 1
 243 257 l 1
 245 242 246 225 246 209 c 0
 246 163 240 117 236 93 c 1
 285 58 l 1
 259 1 l 1
 123 1 l 1
 97 50 l 1
 142 156 l 1
 74 185 l 1
 87 277 l 1
 119 275 l 1
 153 292 l 1
 153 401 l 1xcc
 101 448 l 1
 101 528 l 1xd4
 48 528 l 1
 66 543 71 570 71 598 c 0
 71 630 64 665 60 690 c 1
 243 641 l 1xe4
 243 338 l 1
 345 393 l 1xcc
EndSplineSet
Validated: 1
Layer: 2
EndChar

StartChar: I
Encoding: 73 73 36
Width: 617
Flags: HMW
HStem: -45 181<78 222 75 248> -43 231<479 531 479 479> 1 135<78 268> 1 187<450 508 268 611> 450 156<473 565 326 597 473 473> 491 155<124 225 124 124> 497 109<381 438 381 381>
LayerCount: 3
Back
Fore
SplineSet
66 646 m 1x14
 294 646 l 1
 326 606 l 1x84
 565 606 l 1
 597 574 608 544 608 512 c 0
 608 492 604 471 597 450 c 1x12
 473 450 l 1
 438 497 l 1x42
 381 497 l 1
 393 474 399 451 399 426 c 0
 399 381 378 335 332 292 c 1
 398 185 l 1
 366 139 l 1
 412 136 l 1
 450 188 l 1x12
 611 188 l 1
 611 181 612 175 612 168 c 0
 612 87 579 11 531 -43 c 1x22
 479 -43 l 1
 508 1 l 1x18
 268 1 l 1
 222 -45 l 1x12
 75 -45 l 1
 66 -19 58 16 58 52 c 0
 58 81 63 111 78 136 c 1
 248 136 l 1
 176 263 l 1
 280 413 l 1
 225 491 l 1
 124 491 l 1
 87 425 l 1
 38 439 l 1
 66 493 81 528 81 568 c 0
 81 591 76 615 66 646 c 1x14
EndSplineSet
Validated: 1
Layer: 2
EndChar

StartChar: J
Encoding: 74 74 37
Width: 657
Flags: HMW
HStem: -45 20 0 140<439 484> 439 207<94 155 58 357> 450 156<535 628 388 659 535 535> 491 155<288 288> 497 109<443 501 443 443>
VStem: 120 319
LayerCount: 3
Back
Fore
SplineSet
439 0 m 1xca
 331 1 l 1
 285 -45 l 1
 138 -45 l 1
 129 -19 120 16 120 52 c 0
 120 81 126 110 141 136 c 1
 27 137 l 1
 61 289 l 1
 259 189 l 1
 216 113 l 1
 280 97 l 1
 305 137 l 1
 239 263 l 1
 342 413 l 1
 288 491 l 1
 189 490 l 1
 155 439 l 1xc6
 58 439 l 1
 88 497 107 533 107 577 c 0
 107 597 103 619 94 646 c 1
 357 646 l 1
 388 606 l 1xd2
 628 606 l 1
 660 574 671 544 671 513 c 0
 671 493 666 472 659 450 c 1xc6
 535 450 l 1
 501 497 l 1xe2
 443 497 l 1
 455 474 462 451 462 426 c 0
 462 381 440 335 394 292 c 1
 461 185 l 1
 429 139 l 1
 484 140 l 1
 452 104 439 58 439 14 c 0
 439 9 439 5 439 0 c 1xca
EndSplineSet
Validated: 1
Layer: 2
EndChar

StartChar: K
Encoding: 75 75 38
Width: 580
Flags: HMW
HStem: -93 21G<265 265>
VStem: 49 147<0 44 0 44> 119 96 123 93 305 87 308 140
LayerCount: 3
Back
Fore
SplineSet
333 432 m 1x94
 316 457 308 484 308 512 c 0
 308 551 324 594 360 643 c 1
 591 644 l 1x94
 502 611 448 551 448 490 c 0
 448 471 454 451 465 433 c 1
 340 342 l 1
 427 345 l 1
 400 308 392 262 392 214 c 0
 392 128 420 36 427 -26 c 1
 490 -26 l 1
 488 -52 463 -68 463 -120 c 0
 463 -135 465 -153 470 -174 c 1
 265 -93 l 1
 288 -38 305 -5 305 34 c 0
 305 65 295 98 269 149 c 1
 313 261 l 1
 215 215 l 1
 216 90 l 1xa8
 256 64 l 1
 225 49 197 14 196 0 c 1
 49 1 l 1
 49 44 l 1xc8
 112 161 l 1
 126 401 l 1
 92 384 l 1
 69 439 l 1
 106 443 123 481 123 516 c 0
 123 547 110 575 88 575 c 0
 79 575 69 570 57 560 c 1
 57 560 40 618 31 641 c 1
 286 690 l 1
 216 608 216 429 216 352 c 1
 252 379 289 402 333 432 c 1x94
EndSplineSet
Validated: 1
Layer: 2
EndChar

StartChar: L
Encoding: 76 76 39
Width: 636
Flags: HMW
HStem: -54 192<162 162 162 241 51 162> 1 92<285 337 285 610 285 337> 1 173<394 527 394 610 285 527> 1 271<584 610> 526 129<146 159 104 273>
LayerCount: 3
Back
Fore
SplineSet
146 655 m 1x48
 273 655 l 1
 323 609 364 562 364 496 c 0
 364 461 353 421 325 372 c 1
 420 298 l 1
 285 93 l 1
 337 93 l 1
 394 174 l 1x88
 527 174 l 1
 538 208 547 243 584 272 c 1x18
 662 272 l 1
 609 232 590 162 590 101 c 0
 590 60 598 24 610 1 c 1
 285 1 l 1
 241 -54 l 1x28
 51 -54 l 1
 36 -42 23 -8 23 32 c 0
 23 67 33 106 60 139 c 1
 162 138 l 1
 258 289 l 1
 181 352 l 1
 239 461 l 1
 159 526 l 1
 104 526 l 1
 135 555 146 598 146 640 c 0
 146 645 146 650 146 655 c 1x48
EndSplineSet
Validated: 1
Layer: 2
EndChar

StartChar: M
Encoding: 77 77 40
Width: 668
Flags: HMW
HStem: 1 202<102 154 102 266 102 301 93 154>
VStem: 436 130
LayerCount: 3
Back
Fore
SplineSet
301 1 m 1
 93 1 l 1
 105 32 l 1
 35 116 l 1
 102 203 l 1
 154 203 l 1
 59 664 l 1
 183 770 l 1
 289 678 l 1
 271 641 263 601 263 562 c 0
 263 491 290 423 335 375 c 1
 474 600 l 1
 410 652 l 1
 459 713 l 1
 658 546 l 1
 554 234 l 1
 641 145 l 1
 566 58 l 1
 566 56 566 53 566 51 c 0
 566 6 593 -73 673 -164 c 1
 647 -164 543 -164 526 -164 c 1
 490 -133 436 -4 436 62 c 0
 436 71 437 78 439 84 c 1
 491 142 l 1
 433 214 l 1
 459 309 l 1
 373 223 l 1
 413 159 l 1
 332 107 l 1
 327 163 303 208 295 228 c 1
 266 203 l 1
 294 143 305 104 305 58 c 0
 305 41 304 22 301 1 c 1
EndSplineSet
Validated: 1
Layer: 2
EndChar

StartChar: N
Encoding: 78 78 41
Width: 649
Flags: HMW
HStem: 1 202<100 151 100 264 100 298 91 151 100 520 100 359>
LayerCount: 3
Back
Fore
SplineSet
350 1 m 1
 382 50 l 1
 376 105 300 208 293 228 c 1
 264 203 l 1
 291 144 303 105 303 59 c 0
 303 41 301 22 298 1 c 1
 91 1 l 1
 102 32 l 1
 33 116 l 1
 100 203 l 1
 151 203 l 1
 56 664 l 1
 180 770 l 1
 287 678 l 1
 273 650 267 614 267 574 c 0
 267 467 311 337 362 283 c 1
 454 427 l 1
 362 534 l 1
 420 635 l 1
 656 546 l 1
 552 257 l 1
 541 231 l 1
 479 206 456 165 456 127 c 0
 456 81 489 40 532 38 c 1
 520 1 l 1
 494 1 368 1 350 1 c 1
EndSplineSet
Validated: 1
Layer: 2
EndChar

StartChar: O
Encoding: 79 79 42
Width: 574
Flags: HMW
HStem: 502 188
VStem: 367 200
LayerCount: 3
Back
Fore
SplineSet
323 678 m 1
 248 502 l 1
 153 497 l 1
 189 384 224 327 224 229 c 0
 224 215 223 200 222 185 c 1
 285 252 l 1
 346 133 l 1
 412 168 l 1
 320 352 l 1
 353 395 367 431 367 464 c 0
 367 511 339 553 300 600 c 1
 455 684 l 1
 502 633 568 516 568 426 c 0
 568 399 562 374 548 355 c 2
 493 280 l 1
 542 200 l 1
 532 130 534 101 496 55 c 0
 448 -1 386 -19 325 -19 c 0
 306 -19 286 -17 268 -14 c 1
 268 42 225 81 180 81 c 0
 162 81 143 75 127 61 c 1
 46 514 l 1
 55 601 129 689 247 689 c 0
 271 689 296 686 323 678 c 1
EndSplineSet
Validated: 1
Layer: 2
EndChar

StartChar: P
Encoding: 80 80 43
Width: 416
Flags: W
HStem: 644 1G<110.565 161 262 321.5>
LayerCount: 3
Back
Fore
SplineSet
362 329 m 1
 328 344 l 1
 319 341 316 335 316 327 c 0
 316 301 357 263 357 263 c 1
 247 205 l 1
 198 292 l 1
 210 110 l 1
 264 93 l 1
 218 1 l 1
 89 1 l 1
 91 9 92 17 92 23 c 0
 92 52 74 66 54 90 c 1
 83 110 89 122 93 125 c 0
 98 177 102 239 102 306 c 0
 102 385 97 469 83 548 c 1
 45 618 l 1
 161 664 l 1
 161 656 162 649 162 639 c 0
 162 629 162 617 158 597 c 1
 230 641 l 1
 244 643 256 645 268 645 c 0
 375 645 414 551 414 465 c 0
 414 402 393 343 362 329 c 1
311 430 m 1
 285 540 l 1
 178 514 l 1
 192 347 l 1
 219 385 236 433 289 433 c 0
 296 433 303 432 311 430 c 1
EndSplineSet
Validated: 1
Layer: 2
EndChar

StartChar: Q
Encoding: 81 81 44
Width: 599
Flags: HMW
HStem: -120 109<496 565 453 606> 502 188
VStem: 366 192
LayerCount: 3
Back
Fore
SplineSet
167 64 m 1
 180 74 185 90 185 107 c 0
 185 148 154 196 120 196 c 0
 111 196 102 193 93 185 c 1
 37 514 l 1
 47 601 120 689 238 689 c 0
 262 689 287 686 314 678 c 1
 239 502 l 1
 144 497 l 1
 169 418 191 372 191 334 c 0
 191 310 182 289 159 266 c 1
 242 266 l 1
 291 113 l 1
 337 135 l 1
 309 188 l 1
 286 226 l 1
 358 214 l 1
 390 159 l 1
 403 168 l 1
 323 361 l 1
 354 400 366 433 366 462 c 0
 366 510 332 550 291 600 c 1
 446 684 l 1
 493 633 558 516 558 426 c 0
 558 399 553 374 539 355 c 2
 484 280 l 1
 533 200 l 1
 530 176 527 156 526 139 c 1
 428 100 l 1
 496 -11 l 1
 606 -11 l 1
 606 -28 607 -41 607 -53 c 0
 607 -82 601 -98 565 -120 c 1
 453 -120 l 1
 391 12 l 1
 361 2 333 -2 307 -2 c 0
 241 -2 192 27 167 64 c 1
EndSplineSet
Validated: 1
Layer: 2
EndChar

StartChar: R
Encoding: 82 82 45
Width: 547
Flags: HMW
HStem: 1 118 294 61 613 89
VStem: 141 59 374 103
LayerCount: 3
Back
Fore
SplineSet
555 -175 m 1
 420 -175 l 1
 407 -111 393 -34 290 1 c 1
 359 228 l 1
 361 265 328 295 294 295 c 0
 281 295 267 290 255 280 c 1
 284 188 l 1
 253 140 234 74 234 21 c 0
 234 14 234 8 235 1 c 1
 94 1 l 1
 42 55 l 1
 68 116 l 1
 120 122 l 1
 135 178 141 258 141 338 c 0
 141 422 135 507 128 564 c 1
 39 564 l 1
 82 659 l 1
 313 697 l 2
 335 701 355 702 372 702 c 0
 453 702 478 662 478 583 c 0
 478 572 478 560 477 547 c 1
 434 381 l 1
 342 355 l 1
 492 295 l 1
 408 47 l 1
 475 33 556 -66 556 -157 c 0
 556 -163 556 -169 555 -175 c 1
374 613 m 1
 293 604 217 582 200 538 c 1
 235 393 l 1
 313 419 l 2
 356 432 374 542 374 601 c 0
 374 605 374 609 374 613 c 1
EndSplineSet
Validated: 33
Layer: 2
EndChar

StartChar: S
Encoding: 83 83 46
Width: 619
Flags: HMW
HStem: -1 20
LayerCount: 3
Back
Fore
SplineSet
151 626 m 1
 456 626 l 1
 455 605 492 550 569 550 c 0
 574 550 580 551 585 551 c 1
 616 303 l 1
 532 368 493 375 392 390 c 1
 371 445 l 1
 290 439 l 1
 287 381 l 1
 571 309 l 1
 470 156 l 1
 553 125 l 1
 571 1 l 1
 453 1 l 1
 443 41 l 1
 414 5 338 -1 245 -1 c 0
 194 -1 139 1 83 1 c 1
 110 41 121 75 121 102 c 0
 121 146 91 170 58 170 c 0
 53 170 47 169 42 168 c 1
 103 272 l 1
 293 133 l 1
 357 152 387 181 387 225 c 0
 387 241 383 260 375 280 c 1
 355 294 313 300 266 300 c 0
 215 300 159 293 120 280 c 1
 215 511 l 1
 217 523 219 533 219 542 c 0
 219 581 196 603 151 626 c 1
EndSplineSet
Validated: 33
Layer: 2
EndChar

StartChar: T
Encoding: 84 84 47
Width: 650
Flags: HMW
HStem: 1 141<385 422 385 425> 1 144<212 264 212 425 198 264> 450 153<298 310 192 469> 459 144<431 469 298 558 431 431> 459 187<512 558 56 431>
VStem: 198 252
LayerCount: 3
Back
Fore
SplineSet
56 646 m 1x4c
 255 646 l 1
 298 603 l 1x4c
 469 603 l 1
 512 646 l 1x64
 662 646 l 1
 645 604 625 541 625 484 c 0
 625 449 632 416 653 393 c 1
 584 352 l 1
 576 380 557 413 557 446 c 0
 557 450 557 455 558 459 c 1
 431 459 l 1
 394 422 376 381 376 344 c 0
 376 310 392 280 420 260 c 1
 385 142 l 1
 422 142 l 1
 441 129 450 101 450 73 c 0
 450 45 441 17 425 1 c 1
 198 1 l 1
 193 56 183 50 154 58 c 1
 212 145 l 1x8c
 264 145 l 1
 298 246 l 1
 241 332 l 1
 310 450 l 1
 192 450 l 1
 172 399 l 1x54
 27 399 l 1
 54 439 78 472 78 531 c 0
 78 561 72 598 56 646 c 1x4c
EndSplineSet
Validated: 1
Layer: 2
EndChar

StartChar: U
Encoding: 85 85 48
Width: 505
Flags: HMW
HStem: -11 20
VStem: 193 121
LayerCount: 3
Back
Fore
SplineSet
118 698 m 1
 270 594 l 1
 206 442 l 1
 154 415 l 1
 183 389 193 357 193 318 c 0
 193 272 179 218 164 154 c 1
 219 208 l 1
 302 142 l 1
 389 240 l 1
 372 247 346 292 314 329 c 1
 339 370 349 390 349 414 c 0
 349 440 336 470 317 540 c 1
 426 603 l 1
 463 571 498 449 498 328 c 0
 498 238 479 149 426 96 c 1
 373 90 336 43 336 -1 c 0
 336 -4 337 -8 337 -11 c 1
 184 9 l 1
 196 61 l 1
 78 116 l 1
 46 592 l 1
 98 612 110 636 118 698 c 1
EndSplineSet
Validated: 1
Layer: 2
EndChar

StartChar: V
Encoding: 86 86 49
Width: 617
Flags: HMW
HStem: 1 20 632 20G
LayerCount: 3
Back
Fore
SplineSet
28 525 m 1
 169 623 l 1
 195 574 201 580 247 534 c 1
 221 520 l 1
 304 419 l 1
 238 289 l 1
 284 205 l 1
 311 230 344 269 361 298 c 1
 353 321 333 352 327 375 c 1
 365 383 426 430 426 524 c 0
 426 530 426 536 425 543 c 1
 414 548 397 566 382 580 c 1
 394 597 414 644 417 652 c 1
 462 623 595 539 630 537 c 1
 549 381 l 1
 500 404 l 1
 357 90 l 1
 383 32 l 1
 331 1 l 1
 193 1 l 1
 144 105 l 1
 192 142 l 1
 117 289 l 1
 180 413 l 1
 134 468 l 1
 77 436 l 1
 28 525 l 1
EndSplineSet
Validated: 1
Layer: 2
EndChar

StartChar: W
Encoding: 87 87 50
Width: 765
Flags: HMW
HStem: -89 21G<489 610 489 489> -89 121<598 598 598 610 489 598>
VStem: 26 763<234 543>
LayerCount: 3
Back
Fore
SplineSet
77 412 m 1xa0
 26 543 l 1
 166 721 l 1
 165 649 201 591 247 580 c 1
 195 531 l 1
 313 125 l 1
 402 226 l 1
 322 266 l 1
 400 367 l 1
 526 324 l 1
 469 194 l 1
 503 96 l 1
 624 237 l 1
 451 471 l 1
 564 577 l 1
 743 577 l 1
 604 462 l 1
 789 234 l 1
 598 32 l 1x60
 610 -89 l 1
 489 -89 l 1
 442 -58 416 32 397 96 c 1
 353 1 l 1
 238 1 l 1
 190 46 133 140 113 229 c 1
 114 242 114 255 114 268 c 0
 114 333 108 402 106 431 c 1
 77 412 l 1xa0
EndSplineSet
Validated: 33
Layer: 2
EndChar

StartChar: X
Encoding: 88 88 51
Width: 650
Flags: HMW
HStem: -146 115<396 652 445 592> 1 124<53 165 44 182 53 53> 647 20G<655 655>
VStem: 33 622
LayerCount: 3
Back
Fore
SplineSet
396 -146 m 1
 309 137 l 1
 182 1 l 1
 53 1 l 1
 40 14 33 40 33 67 c 0
 33 87 37 108 44 125 c 1
 165 125 l 1
 276 246 l 1
 220 433 l 1
 119 312 l 1
 53 468 l 1
 153 586 l 1
 202 548 l 1
 226 603 l 1
 341 572 l 1
 377 357 l 1
 453 442 l 1
 522 433 l 1
 422 623 l 1
 494 710 l 1
 655 667 l 1
 625 639 615 592 615 545 c 0
 615 478 636 410 655 393 c 1
 520 272 l 1
 476 318 l 1
 399 234 l 1
 403 226 433 35 445 -31 c 1
 652 -31 l 1
 592 -146 l 1
 396 -146 l 1
EndSplineSet
Validated: 1
Layer: 2
EndChar

StartChar: Y
Encoding: 89 89 52
Width: 639
Flags: HMW
HStem: 1 20
LayerCount: 3
Back
Fore
SplineSet
300 626 m 1
 347 375 l 1
 381 425 l 1
 482 416 l 1
 392 678 l 1
 493 756 l 1
 646 618 l 1
 531 257 l 1
 416 306 l 1
 430 168 l 1
 476 142 l 1
 470 50 l 1
 387 1 l 1
 240 1 l 1
 202 162 l 1
 315 162 l 1
 320 93 l 1
 352 81 l 1
 307 272 l 1
 283 326 301 271 211 502 c 1
 98 439 l 1
 32 595 l 1
 67 655 l 1
 124 606 l 1
 147 698 l 1
 300 626 l 1
EndSplineSet
Validated: 1
Layer: 2
EndChar

StartChar: Z
Encoding: 90 90 53
Width: 627
Flags: HMW
HStem: -51 173<364 456 364 364> 1 121<237 330 53 105>
VStem: 421 154
LayerCount: 3
Back
Fore
SplineSet
154 301 m 1xa0
 90 352 l 1
 126 376 141 409 141 446 c 0
 141 510 97 584 38 635 c 1
 404 635 l 1
 589 494 l 1
 575 234 l 1
 488 289 l 1
 237 122 l 1
 456 122 l 1
 456 125 457 129 457 132 c 0
 457 156 448 174 445 197 c 1
 629 116 l 1
 575 47 l 1
 540 -51 l 1
 364 -51 l 1
 330 1 l 1x60
 105 1 l 1
 110 17 113 31 113 45 c 0
 113 74 98 99 53 122 c 1
 387 295 l 1
 419 384 l 1
 420 391 421 397 421 403 c 0
 421 435 398 444 367 444 c 0
 330 444 281 431 246 425 c 1
 321 350 l 1
 154 301 l 1xa0
EndSplineSet
Validated: 1
Layer: 2
EndChar

StartChar: a
Encoding: 97 97 54
Width: 734
Flags: MW
HStem: -266 72<616 681 557 750 616 616> -266 163<738 750 616 804> -97 72<141 252 83 317 141 141> -55 25<638 727> -50 25<83 100 78 252> 97 25<47 158 24 173 47 47> 383 183<605 652 536 704> 614 25<489 605 489 489>
VStem: 20 25 223 25 260 27 285 25 409 25<664 720 720 720> 409 73<639 676 639 720 639 720>
LayerCount: 3
Back
Fore
SplineSet
100 -50 m 1x57d4
 78 -50 l 1
 10 -22 19 64 24 122 c 1
 158 122 l 1
 231 256 l 2
 265 317 264 332 255 390 c 0
 255 393 254 397 254 400 c 0
 223 422 216 441 231 482 c 1
 279 561 l 1
 285 600 293 609 270 641 c 0
 256 661 241 681 228 702 c 1
 434 752 l 1
 434 664 l 1
 482 676 l 1x8fd8
 482 639 l 1
 702 639 l 1
 653 617 620 608 605 566 c 1
 704 566 l 1
 613 525 652 391 652 383 c 1
 536 383 l 1
 638 -30 l 1
 762 -30 l 1
 738 -103 l 1
 804 -103 l 1
 750 -266 l 1
 728 -266 616 -266 616 -266 c 1
 583 -258 549 -239 531 -211 c 1
 494 -197 452 -170 446 -128 c 2
 408 116 l 1
 390 114 l 1
 354 -56 l 1
 317 -97 l 1x67d8
 141 -97 l 1
 119 -88 107 -71 100 -50 c 1x57d4
557 -194 m 1
 681 -194 l 1
 727 -55 l 1x8fe8
 585 -55 l 1
 463 447 l 1
 463 447 568 447 579 447 c 1
 568 502 562 569 605 614 c 1
 489 614 l 1
 409 491 l 1
 409 720 l 1
 269 686 l 1
 315 620 315 633 303 552 c 1
 253 471 l 1
 239 432 256 432 279 412 c 1
 279 407 l 2
 279 386 286 366 287 345 c 0x57d8
 288 318 278 288 253 243 c 2
 173 97 l 1
 47 97 l 1
 44 59 41 -6 83 -25 c 1
 252 -25 l 1
 282 10 l 1
 320 186 l 1
 423 186 l 1
 471 -124 l 2
 476 -158 517 -184 557 -194 c 1
331 241 m 1
 373 497 l 1
 415 241 l 1
 331 241 l 1
EndSplineSet
Validated: 33
Layer: 2
EndChar

StartChar: b
Encoding: 98 98 55
Width: 640
Flags: MW
HStem: -114 73<161 277 105 344 161 161> -72 73 -66 25<105 125 97 277> -16 17 75 25<78 157 64 171 78 78> 289 72<367 591> 622 25<354 515 354 354> 646 25<153 263 153 153>
VStem: 43 24 130 26<347 386> 161 25 261 27 513 26
LayerCount: 3
Back
Fore
SplineSet
261 444 m 1x3ef8
 353 479 370 470 430 566 c 1
 474 404 l 1
 339 356 l 1
 373 256 l 1
 279 281 243 345 261 444 c 1x3ef8
376 250 m 1
 398 193 l 1
 482 187 474 50 400 54 c 1
 296 132 l 1
 376 250 l 1
386 9 m 1
 491 1 l 1
 532 177 l 1
 367 361 l 1
 520 361 l 1
 555 530 l 1
 526 543 507 579 515 622 c 1
 354 622 l 1
 261 485 l 1
 263 646 l 1x3df8
 153 646 l 1
 125 623 l 1
 188 573 192 506 182 431 c 1
 138 406 l 1
 156 386 l 1
 154 335 165 225 230 211 c 2
 246 207 l 1
 171 75 l 1
 78 75 l 1
 57 37 69 -16 105 -41 c 1
 277 -41 l 1
 304 1 l 1
 251 52 l 1
 285 115 l 1
 386 9 l 1
125 -66 m 1x4ef8
 97 -66 l 1
 39 -29 26 44 64 100 c 1
 157 100 l 1
 209 191 l 1
 145 219 130 317 130 377 c 1
 99 412 l 1
 158 447 l 1
 169 533 152 575 83 621 c 1
 145 671 l 1
 288 671 l 1
 288 598 l 1
 307 598 l 1
 341 647 l 1x3df8
 548 647 l 1
 539 620 534 594 545 574 c 1
 591 574 l 1
 574 525 600 484 630 478 c 1
 591 289 l 1
 466 288 l 1
 559 184 l 1
 557 174 l 1
 606 120 l 1
 561 -72 l 1
 440 -63 l 1
 397 -16 l 1x9df8
 375 -15 l 1
 341 21 l 1
 331 3 336 11 326 -6 c 1
 380 -57 326 -6 380 -57 c 1
 344 -114 l 1
 161 -114 l 1
 144 -103 133 -85 125 -66 c 1x4ef8
EndSplineSet
Validated: 33
Layer: 2
EndChar

StartChar: c
Encoding: 99 99 56
Width: 651
Flags: W
HStem: -59 72<372 481> -45 24<214 264.242> 121 24<439 542> 384 25<460 485> 480 25<396 409> 677 25<165 269>
VStem: 82 25<120.831 544> 214 73<190 413.584> 435 25<410.038 462> 509 49<337 383.003>
LayerCount: 3
Back
Fore
SplineSet
607 602 m 1x7fc0
 642 567 l 1
 630 558 619 544 609 529 c 1
 638 510 l 1
 624 491 600 458 580 432 c 1
 568 432 l 1
 559 397 555 364 558 337 c 1
 509 337 l 1
 506 351 505 368 506 384 c 1
 439 384 l 1
 433 411 432 436 435 462 c 1
 432 469 l 1
 409 480 l 1
 398 480 l 1
 368 441 331 416 287 409 c 1
 287 170 l 1
 310 154 l 1
 368 194 l 1
 370 156 372 141 402 113 c 1
 426 145 l 1
 584 146 l 1
 543 73 l 1
 623 73 l 1
 548 -59 l 1
 372 -59 l 1xbfc0
 334 -94 l 1
 256 -93 l 21
 262 -91 265 -63 265 -63 c 2
 264 -57 264 -51 263 -46 c 1
 195 -45 l 1
 204 -24 l 2
 198 -32 192 -30 187 -25 c 1
 189 -18 191 -9 192 -2 c 0
 191 16 187 34 180 48 c 1
 172 50 163 50 154 50 c 1
 154 78 l 1
 139 91 119 98 94 98 c 2
 82 98 l 1
 82 544 l 1
 43 584 l 1
 71 594 97 607 124 619 c 1
 131 629 150 663 136 682 c 2
 121 702 l 1
 293 702 l 1
 294 676 l 1
 380 694 432 679 501 636 c 1
 515 652 532 665 547 679 c 1
 600 627 l 1
 587 615 577 607 566 593 c 1
 584 581 l 1
 593 590 602 597 607 602 c 1x7fc0
564 628 m 1
 547 645 l 1
 531 632 519 619 508 602 c 1
 416 661 377 670 269 645 c 1
 269 677 l 1
 165 677 l 1
 170 651 156 620 141 600 c 1
 141 600 107 584 87 575 c 1
 107 555 l 1
 107 122 l 1
 176 116 214 60 217 -4 c 1
 217 -4 215 -13 214 -21 c 1
 269 -21 l 1x7fc0
 307 13 l 1
 481 13 l 1
 542 121 l 1
 439 121 l 1
 407 77 l 1
 382 97 357 118 348 150 c 1
 310 124 l 1
 214 190 l 1
 214 480 l 1
 273 488 302 512 336 559 c 1
 382 539 l 1
 396 505 l 1
 471 505 l 1
 461 473 455 443 460 409 c 1
 485 409 l 1
 483 442 490 474 499 505 c 1
 514 505 l 1
 529 525 547 549 560 567 c 1
 531 585 l 1
 541 600 551 615 564 628 c 1
EndSplineSet
Validated: 33
Layer: 2
EndChar

StartChar: d
Encoding: 100 100 57
Width: 641
Flags: MW
HStem: -114 73<151 267 94 334 151 151> -72 73 -67 26<111 111> -28 29 64 25<83 138 69 155 83 83> 622 25<344 504 344 344>
VStem: 42 25 120 25<351 386> 150 25 249 25 249 326 436 25 503 26
LayerCount: 3
Back
Fore
SplineSet
330 10 m 1x3fd8
 317 -7 l 1
 370 -57 l 1
 334 -114 l 1
 151 -114 l 1x9fe8
 132 -102 115 -85 111 -67 c 1x3fd8
 87 -66 l 1
 26 -27 35 38 69 89 c 1
 138 89 l 1
 184 215 l 1
 136 245 120 325 120 377 c 1
 89 412 l 1
 148 447 l 1
 158 533 135 553 70 597 c 1
 146 688 l 1
 273 635 l 1
 274 565 l 1
 331 647 l 1
 538 647 l 1
 528 617 526 592 537 573 c 1
 580 574 l 1
 564 525 589 484 619 478 c 1
 573 370 l 1
 640 208 l 1
 619 118 l 1
 550 -72 l 1x4fd8
 431 -73 l 1
 387 -28 l 1
 367 -28 l 1
 330 10 l 1x3fd8
547 181 m 1
 567 266 l 1
 499 430 l 1
 543 531 l 1
 515 545 497 581 504 622 c 1
 344 622 l 1
 249 487 l 1
 248 619 l 1
 153 658 l 1
 107 602 l 1
 173 556 182 514 171 431 c 1
 128 406 l 1
 145 386 l 1
 144 332 156 254 215 228 c 1
 155 64 l 1
 83 64 l 1
 59 24 62 -18 94 -41 c 1
 267 -41 l 1
 294 1 l 1
 242 50 l 1
 261 123 l 1
 377 0 l 1
 482 1 l 1
 547 181 l 1
375 533 m 1
 509 294 l 1
 426 188 l 1
 457 178 464 147 459 120 c 0
 453 87 428 52 390 54 c 1
 267 146 l 1
 296 257 l 1
 281 272 263 284 255 304 c 0
 247 325 250 359 249 436 c 2
 249 446 l 1
 295 470 336 499 375 533 c 1
376 164 m 1
 479 296 l 1
 400 428 l 1
 381 413 356 397 322 378 c 1
 322 376 l 1
 317 219 324 250 370 201 c 1
 348 121 l 1
 398 79 l 1
 431 83 461 168 403 165 c 2
 376 164 l 1
EndSplineSet
Validated: 33
Layer: 2
EndChar

StartChar: e
Encoding: 101 101 58
Width: 657
Flags: MW
HStem: -94 73<152 255 94 319 152 152> -59 72<357 532 292 599 357 357> -45 24<116 116> -45 150<116 116> 121 25<424 593 424 424> 388 72<433 500 380 565 433 433> 431 29<380 413 371 500> 431 244<371 413 371 371>
VStem: 34 26 107 25 133 25 164 26 253 292<602 602 602 632 602 632> 512 33
LayerCount: 3
Back
Fore
SplineSet
596 74 m 1x4af4
 674 73 l 1
 599 -59 l 1
 357 -59 l 1
 319 -94 l 1x1af8
 152 -94 l 1
 130 -86 122 -66 116 -45 c 1x2cf4
 90 -46 l 1
 25 -23 33 51 38 105 c 1
 140 105 l 1
 202 209 l 1
 123 223 131 287 134 344 c 1
 109 373 100 427 114 462 c 1
 159 530 l 1
 170 596 164 579 121 637 c 2
 106 657 l 1
 278 657 l 1
 278 635 l 1
 362 675 l 1
 568 675 l 1
 556 656 l 2
 544 636 546 619 545 602 c 1
 605 603 l 1
 562 534 594 469 623 457 c 1
 606 440 595 415 565 388 c 1x19f8
 433 388 l 1
 413 431 l 1x8af4
 371 431 l 1
 336 406 317 364 310 322 c 1
 369 349 l 1
 409 263 l 1
 423 272 l 1
 464 186 l 1
 384 189 353 146 339 106 c 1
 383 105 l 1
 412 146 l 1
 635 146 l 1
 596 74 l 1x4af4
532 13 m 1
 593 121 l 1
 424 121 l 1
 396 80 l 1
 248 80 l 1
 253 116 255 149 271 183 c 0
 288 220 320 255 384 258 c 1
 357 316 l 1
 260 271 l 1
 174 345 278 504 347 527 c 1
 380 460 l 1
 500 460 l 1
 516 475 531 497 544 514 c 1
 517 537 498 592 524 650 c 1
 368 650 l 1
 253 595 l 1
 253 632 l 1
 156 632 l 1
 197 580 194 587 183 521 c 1
 136 451 l 1
 126 424 135 375 159 356 c 1
 159 350 l 2
 159 276 138 235 244 231 c 1
 154 80 l 1
 60 80 l 1
 58 47 56 -6 94 -21 c 1x4af4
 255 -21 l 1
 292 13 l 1x2af4
 532 13 l 1
EndSplineSet
Validated: 33
Layer: 2
EndChar

StartChar: f
Encoding: 102 102 59
Width: 550
Flags: MW
HStem: -97 110<152 184 152 152> -59 72<167 227 87 314 167 167> 81 25<61 102 38 121 61 61> 320 25<237 288> 390 72<362 424 307 489 362 362> 390 199<481 489 362 537> 619 25<72 185 72 72>
VStem: 35 26 40 26 48 24 48 53 70 24 203 72 475 51
LayerCount: 3
Back
Fore
SplineSet
237 345 m 1x7a9c
 304 345 l 1
 335 272 l 1
 356 272 l 1
 396 186 l 1
 252 192 278 56 276 33 c 0
 275 10 282 -31 314 -59 c 1
 285 -59 167 -59 167 -59 c 1
 184 -97 l 1xb69c
 152 -97 l 1
 131 -89 118 -65 112 -45 c 1
 90 -49 l 1
 26 -26 33 51 38 106 c 1
 102 106 l 1
 135 221 l 1
 63 229 65 259 75 312 c 1
 52 317 36 344 59 380 c 1
 103 523 l 1
 27 545 34 577 53 644 c 1
 210 644 l 1
 210 631 l 1
 273 692 l 1
 341 651 419 659 494 663 c 1
 490 650 483 622 481 589 c 1
 500 590 522 589 537 589 c 1
 516 520 526 455 555 444 c 1
 538 426 519 416 489 390 c 1
 362 390 l 1
 317 432 l 1
 265 415 242 378 237 345 c 1x7a9c
62 23 m 0
 66 1 76 -16 95 -24 c 1
 105 -24 l 1
 87 13 l 1
 227 13 l 1
 203 48 203 88 203 127 c 0
 203 200 234 254 317 258 c 1
 288 320 l 1
 195 320 l 1
 116 387 189 483 260 506 c 1
 307 462 l 1x7b1c
 424 462 l 1
 441 477 458 489 475 503 c 1
 451 527 448 583 461 636 c 1
 401 633 331 633 277 661 c 1
 185 572 l 1
 185 619 l 1
 72 619 l 1x7a2c
 54 553 77 555 134 540 c 1
 82 369 l 1
 60 336 78 334 101 338 c 1x7a4c
 101 323 l 2
 101 266 62 249 168 245 c 1
 121 81 l 1
 61 81 l 1x7a9c
 59 63 59 42 62 23 c 0
EndSplineSet
Validated: 33
Layer: 2
EndChar

StartChar: g
Encoding: 103 103 60
Width: 658
Flags: MW
HStem: -221 20 -60 73<385 385> -11 24<241 241> 47 75<94 171 94 142> 132 25<416 458 393 519> 248 25<380 520 380 380> 340 26<447 472 447 493 427 472> 615 24
VStem: 69 25<122 500 500 500> 69 287<194 194 194 500> 202 73<190 365 164 435 164 435> 393 23 472 72 479 72 493 51
LayerCount: 3
Back
Fore
SplineSet
617 169 m 1xdfb4
 661 119 l 1
 534 -10 531 -140 583 -183 c 1
 499 -221 l 1
 445 -172 l 1
 437 -175 l 1
 371 -116 l 1
 385 -60 l 1
 254 -59 l 1
 254 -44 247 -25 241 -11 c 1xbf54
 183 -12 l 1
 182 9 178 31 171 47 c 0
 167 47 142 47 142 47 c 1
 142 80 l 1
 126 94 110 98 82 98 c 2
 69 98 l 1
 69 500 l 1
 36 534 l 1
 127 635 l 1
 171 600 l 1
 331 656 393 651 488 591 c 1
 502 607 519 621 535 635 c 1
 588 582 l 1
 569 567 551 543 539 522 c 0
 542 520 548 517 551 514 c 1
 562 531 585 549 595 558 c 1
 629 523 l 1
 575 479 537 362 546 292 c 1
 497 292 l 1
 493 306 492 324 493 340 c 1xbfb2
 427 340 l 1
 421 367 416 401 428 433 c 1
 396 451 l 1
 366 410 320 371 275 365 c 1
 275 164 l 1
 298 154 l 1
 356 194 l 1xbfb4
 358 142 373 122 418 92 c 1
 458 132 l 1
 393 132 l 1
 386 212 383 212 319 273 c 1
 531 273 l 1
 618 179 l 2
 623 173 621 172 617 169 c 1xdfb4
584 180 m 1
 520 248 l 1
 380 248 l 1
 407 218 413 196 416 157 c 1
 519 157 l 1
 421 60 l 1
 388 81 348 109 335 150 c 1
 298 124 l 1
 202 190 l 1xbfb4
 202 435 l 1
 261 444 298 481 332 527 c 1
 462 456 l 1
 448 427 442 398 447 366 c 1
 472 366 l 1
 469 434 502 535 551 584 c 1xbfb8
 534 601 l 1
 519 587 506 574 495 557 c 1
 368 639 312 624 166 572 c 1
 130 601 l 1
 70 535 l 1
 94 510 l 1
 94 122 l 1
 159 117 199 70 206 13 c 1
 430 13 l 1
 399 -107 430 13 399 -107 c 1
 442 -146 l 1
 502 -119 l 1
 457 -61 474 62 584 180 c 1
EndSplineSet
Validated: 33
Layer: 2
EndChar

StartChar: h
Encoding: 104 104 61
Width: 595
Flags: MW
HStem: -108 72<431 506 372 586 431 431> -59 23<372 407> -12 25<162 192 147 282> 262 25<147 152> 516 25<104 120>
VStem: 90 25 120 25<453 516 516 516> 172 25<300 396 396 396> 261 25<591 631 631 631> 261 73<453 453 453 631> 313 24 462 72
LayerCount: 3
Back
Fore
SplineSet
397 390 m 1x7f50
 261 317 l 1
 261 631 l 1
 107 673 l 1
 114 633 122 578 104 541 c 1
 145 541 l 1
 145 453 l 1
 197 407 l 1
 197 284 l 1
 152 262 l 1
 129 264 l 1
 119 193 l 1
 189 163 l 1
 142 50 l 1
 162 13 l 1
 282 13 l 1
 300 54 l 1
 253 87 l 1
 263 146 267 206 260 265 c 1
 382 322 l 1
 387 272 382 222 386 171 c 1
 374 150 369 127 357 106 c 1
 356 91 353 -25 372 -36 c 1
 506 -36 l 1
 471 38 462 150 462 263 c 0
 462 388 470 465 476 586 c 1
 503 642 l 1
 469 646 420 672 392 704 c 1
 342 666 l 1
 337 539 l 1x7f50
 334 453 l 1x7fb0
 397 390 l 1x7f50
214 -59 m 1
 192 -12 l 1
 147 -12 l 1
 115 49 l 1
 156 150 l 1
 92 177 l 1
 107 291 l 1
 147 287 l 1
 172 300 l 1
 172 396 l 1
 120 442 l 1
 120 516 l 1
 46 516 l 1
 81 546 91 552 90 603 c 0
 89 638 81 673 75 707 c 1
 286 650 l 1x7fb0
 286 591 l 1
 313 585 l 1
 318 679 l 1
 396 739 l 1
 412 717 482 655 519 667 c 2
 547 676 l 1
 516 611 l 1
 543 597 570 591 583 595 c 1
 549 523 l 1
 541 383 504 29 586 -108 c 1
 431 -108 l 2
 418 -106 411 -86 407 -59 c 1xbfb0
 214 -59 l 1
361 215 m 1
 332 197 l 1
 332 114 l 1
 332 114 350 156 361 176 c 1
 360 190 363 201 361 215 c 1
EndSplineSet
Validated: 33
Layer: 2
EndChar

StartChar: i
Encoding: 105 105 62
Width: 694
Flags: MW
HStem: -105 72<156 238 105 303 156 156> -60 27<142 142> -59 29<523 546 523 588> -59 72<349 552 284 588 349 349> 176 22 391 72<500 667> 431 72<205 252 137 278 205 205> 437 26<500 519>
VStem: 66 25 89 25 407 73 620 34<176 198> 620 72<128 176>
LayerCount: 3
Back
Fore
SplineSet
554 390 m 1x2968
 519 437 l 1
 461 437 l 1
 496 373 484 298 412 232 c 1
 445 175 l 1
 464 201 l 1
 654 198 l 1
 656 171 649 153 646 128 c 1
 692 128 l 1x4970
 698 39 663 -45 611 -103 c 1
 559 -103 l 1
 588 -59 l 1
 349 -59 l 1
 303 -105 l 1x4c70
 156 -105 l 1
 152 -94 145 -74 142 -60 c 1x4ab0
 87 -58 l 1
 63 9 53 83 91 149 c 1x4970
 247 149 l 1
 182 264 l 1
 285 413 l 1
 278 431 l 1
 205 431 l 1
 167 365 l 1
 118 379 l 1
 140 420 146 449 152 479 c 1
 113 410 l 1
 40 431 l 1
 90 528 104 553 70 659 c 1
 321 659 l 1
 353 619 l 1
 591 619 l 1
 618 592 632 563 638 537 c 1
 647 536 657 545 664 534 c 0
 682 504 680 430 667 391 c 1x8970
 554 390 l 1x2968
620 176 m 1
 477 176 l 1
 439 123 l 1
 364 128 l 1
 404 186 l 1
 336 294 l 1
 410 362 428 422 380 509 c 1
 465 509 l 1
 500 463 l 1
 608 463 l 1
 622 510 622 550 581 594 c 1
 340 594 l 1
 309 634 l 1
 104 634 l 1
 125 559 113 519 76 447 c 1
 101 439 l 1
 137 503 l 1x2970
 252 503 l 1
 316 413 l 1
 211 262 l 1
 290 124 l 1
 106 124 l 1
 82 75 91 11 105 -33 c 1
 238 -33 l 1
 284 13 l 1x1970
 552 13 l 1
 523 -30 l 1x4a70
 546 -30 l 1
 591 23 622 96 620 176 c 1
EndSplineSet
Validated: 33
Layer: 2
EndChar

StartChar: j
Encoding: 106 106 63
Width: 736
Flags: MW
HStem: -105 72<217 299 166 364 217 217> -60 73 -58 25<166 205 148 299> 379 72<137 168 97 235 137 137> 390 73<615 669 561 739 615 615> 426 25<97 160> 437 26<561 580> 437 72<522 526 441 580 522 522>
VStem: 127 25 468 73
LayerCount: 3
Back
Fore
SplineSet
333 431 m 1x30c0
 268 430 l 1
 235 379 l 1
 137 379 l 1
 146 396 153 412 160 426 c 1x22c0
 56 426 l 1
 96 504 131 550 102 642 c 1
 96 658 l 1
 382 659 l 1
 414 619 l 1
 652 619 l 1
 678 593 688 568 695 544 c 1
 707 546 l 1
 759 494 756 445 739 390 c 1x82c0
 615 390 l 1
 580 437 l 1x42c0
 522 437 l 1
 557 373 545 298 473 232 c 1
 522 153 l 1
 533 153 l 2
 530 151 529 148 527 146 c 2
 540 125 l 1
 508 79 l 1
 564 77 l 1
 528 38 515 -11 518 -60 c 1
 410 -59 l 1
 364 -105 l 1x28c0
 217 -105 l 1
 212 -92 208 -75 205 -58 c 1x24c0
 148 -58 l 1
 133 -17 123 31 128 76 c 1
 107 77 l 1
 116 125 l 1
 31 125 l 1
 71 308 l 1
 274 206 l 1
 243 264 l 1
 346 413 l 1
 333 431 l 1x30c0
305 146 m 1
 287 179 l 1
 277 160 l 1
 305 146 l 1
299 -33 m 1
 345 13 l 1x24c0
 445 13 l 1
 445 52 454 92 477 127 c 1
 424 126 l 1
 465 186 l 1
 397 294 l 1
 471 362 489 422 441 509 c 1
 526 509 l 1
 561 463 l 1x22c0
 669 463 l 1
 683 510 683 550 642 594 c 1
 402 594 l 1
 370 634 l 1
 130 633 l 1
 151 558 130 515 97 451 c 1x41c0
 168 451 l 1
 201 503 l 1
 313 503 l 1
 377 413 l 1
 272 262 l 1
 338 137 l 1
 305 83 l 1
 216 104 l 1
 261 184 l 1
 89 271 l 1
 62 149 l 1
 181 149 l 1
 146 88 145 33 166 -33 c 1
 299 -33 l 1
EndSplineSet
Validated: 33
Layer: 2
EndChar

StartChar: k
Encoding: 107 107 64
Width: 666
Flags: MW
HStem: -60 73<77 271> -39 324<431 502 431 502> -11 24<124 124> 332 325<419 677> 561 27 631 26
VStem: 52 25<13 41 13 47 13 47> 115 25<157 165> 219 248 451 73 466 100
LayerCount: 3
Back
Fore
SplineSet
239 342 m 2x2f40
 219 327 l 1x2f40
 219 352 l 2
 219 420 218 579 273 672 c 1
 63 631 l 1
 69 615 75 595 80 580 c 1
 156 625 182 459 102 430 c 1
 114 401 l 1
 156 422 l 1
 140 157 l 1
 77 41 l 1
 77 13 l 1
 202 13 l 1
 210 29 228 50 248 64 c 1
 219 83 l 1
 218 223 l 1
 351 286 l 1
 299 150 l 1
 351 43 339 10 297 -86 c 1
 469 -154 l 1
 461 -108 468 -83 487 -44 c 2
 489 -39 l 1x3340
 431 -39 l 1
 419 75 362 223 419 332 c 1x4f40
 315 328 l 1
 464 437 l 1
 428 508 469 584 551 631 c 1x2f80
 382 631 l 1
 332 560 317 502 366 429 c 1
 323 400 280 372 239 342 c 2x2f40
502 -86 m 2
 566 -86 l 1x4f40
 563 -119 522 -137 546 -234 c 1
 341 -153 l 1
 343 -146 349 -136 352 -130 c 1
 264 -100 l 1
 278 -68 290 -40 298 -18 c 1
 283 -32 272 -51 271 -60 c 1
 124 -59 l 1
 124 -11 l 1x2f40
 52 -12 l 1
 52 47 l 1
 115 165 l 1
 128 381 l 1
 101 367 l 1
 66 450 l 1
 111 454 130 479 126 526 c 0
 120 582 91 559 66 538 c 1
 66 538 44 613 35 636 c 2
 30 650 l 1
 334 709 l 1
 311 682 l 2
 295 663 283 640 273 613 c 1
 350 628 l 1
 356 637 362 646 369 656 c 1
 677 657 l 1
 611 632 l 2
 582 621 553 604 529 584 c 1
 667 584 l 1
 549 540 494 450 541 373 c 1
 434 302 l 2
 432 298 431 287 429 283 c 2
 502 285 l 1x8f20
 444 204 471 81 490 -15 c 1
 519 -14 l 1
 516 -48 509 -59 502 -72 c 0
 502 -76 502 -83 502 -86 c 2
EndSplineSet
Validated: 33
Layer: 2
EndChar

StartChar: l
Encoding: 108 108 65
Width: 711
Flags: MW
HStem: -114 72<125 249 70 315 125 125> -67 25<70 100 60 249> -59 72<358 605 292 684 358 358> -59 245<531 531 531 684 358 531> 125 25<169 183> 259 25<603 644 603 603> 513 25<145 168> 642 25<173 282 173 173>
VStem: 24 25 147 26 366 70 591 73
LayerCount: 3
Back
Fore
SplineSet
100 -67 m 1x17f0
 60 -67 l 1
 -3 -16 28 104 68 152 c 1
 169 150 l 1
 255 286 l 1
 179 349 l 1
 237 458 l 1
 231 464 l 1
 178 466 l 1
 186 474 189 483 195 492 c 1
 168 513 l 1
 87 513 l 1
 140 564 152 592 146 667 c 1
 292 667 l 1
 331 631 359 592 376 556 c 1
 430 498 462 440 409 333 c 1
 451 300 l 1
 435 276 l 1
 494 238 l 1
 458 187 l 1
 531 186 l 1x4ff0
 545 228 556 255 594 284 c 1
 714 284 l 1
 683 262 l 2
 657 242 640 211 629 181 c 1
 637 191 646 203 658 212 c 1
 736 212 l 1
 647 145 654 -2 684 -59 c 1
 358 -59 l 1
 315 -114 l 1x8ff0
 125 -114 l 1
 114 -106 105 -90 100 -67 c 1x17f0
282 642 m 1
 173 642 l 1
 173 607 166 569 145 538 c 1
 177 538 l 1
 269 464 l 1
 210 356 l 1
 288 291 l 1
 183 125 l 1
 79 127 l 1
 32 64 49 -19 70 -42 c 1
 249 -42 l 1
 292 13 l 1x2ff0
 605 13 l 1
 583 75 581 189 644 259 c 1
 603 259 l 1
 570 232 562 199 550 161 c 1
 414 161 l 1
 357 80 l 1
 275 80 l 1
 417 295 l 1
 323 369 l 1
 392 492 377 554 282 642 c 1
EndSplineSet
Validated: 33
Layer: 2
EndChar

StartChar: m
Encoding: 109 109 66
Width: 740
Flags: MW
HStem: -224 73<599 659 544 746 599 607.5> -177 26<568 568> -59 72<166 303 124 374 166 166> -12 25<124 164> 190 25<121 152 109 182 121 121>
VStem: 263 77 435 27 567 72<-2 63>
LayerCount: 3
Back
Fore
SplineSet
746 -224 m 1x9f
 720 -224 616 -224 599 -224 c 1
 589 -215 579 -197 568 -177 c 1x9f
 534 -176 l 1
 492 -140 432 -11 435 63 c 1
 406 47 l 1
 403 75 396 99 388 120 c 1
 357 104 l 1
 378 49 382 3 374 -59 c 1
 166 -59 l 1
 188 -26 l 1
 164 -12 l 1x6f
 89 -12 l 1
 104 30 l 1
 33 116 l 1
 109 215 l 1
 152 215 l 1
 58 668 l 1
 196 787 l 1
 318 681 l 1
 314 674 312 672 309 664 c 1
 362 618 l 1
 330 552 336 476 357 412 c 1
 471 598 l 1
 406 650 l 1
 471 731 l 1
 686 550 l 1
 678 528 l 1
 731 486 l 1
 633 185 l 1
 671 145 l 1
 663 133 l 1
 714 85 l 1
 639 -2 l 1
 636 -45 662 -128 746 -224 c 1x9f
544 -151 m 1
 659 -151 l 1
 617 -99 562 -12 567 63 c 1
 637 144 l 1
 553 231 l 1
 657 541 l 1
 474 695 l 1
 441 654 l 1
 503 603 l 1
 351 355 l 1
 269 441 237 562 287 675 c 1
 196 754 l 1
 86 659 l 1
 182 190 l 1
 121 190 l 1
 65 116 l 1
 132 35 l 1
 124 13 l 1
 303 13 l 1
 312 93 298 133 264 206 c 1
 314 250 l 1
 329 210 347 171 355 128 c 1
 409 163 l 1
 370 224 l 1
 497 351 l 1
 460 217 l 1
 521 141 l 1
 464 78 l 1
 451 28 507 -114 544 -151 c 1
EndSplineSet
Validated: 33
Layer: 2
EndChar

StartChar: n
Encoding: 110 110 67
Width: 725
Flags: MW
HStem: -59 37<426 608> -59 109<565 565 565 596> -11 24<171 171 389 462> 190 25<122 152 109 183 122 122>
VStem: 270 75
LayerCount: 3
Back
Fore
SplineSet
674 509 m 1x58
 732 486 l 1
 628 197 l 1
 617 171 l 1
 549 144 525 95 530 54 c 1
 536 52 542 51 548 51 c 2
 565 50 l 1
 553 11 l 1
 567 -8 585 -21 608 -22 c 1xb8
 596 -59 l 1
 570 -59 444 -59 426 -59 c 1
 462 -11 l 1
 386 -11 l 1
 385 -25 377 -43 374 -59 c 1
 167 -59 l 1
 178 -28 l 1
 171 -11 l 1
 89 -12 l 1
 104 30 l 1
 33 116 l 1
 109 215 l 1
 152 215 l 1
 59 668 l 1
 196 787 l 1
 318 681 l 1
 316 676 312 670 310 664 c 1
 363 618 l 1
 327 545 349 419 386 324 c 1
 455 426 l 1
 363 533 l 1
 430 650 l 1
 688 553 l 1
 674 509 l 1x58
556 262 m 1
 656 538 l 1
 441 619 l 1
 393 536 l 1
 486 429 l 1
 380 263 l 1
 297 350 240 558 288 675 c 1
 196 754 l 1
 86 659 l 1
 183 190 l 1
 122 190 l 1
 65 116 l 1
 133 35 l 1
 125 13 l 1
 303 13 l 1
 313 93 299 133 265 206 c 1
 314 250 l 1
 326 217 347 189 365 158 c 0
 383 126 407 85 411 47 c 1
 389 13 l 1
 527 13 l 1
 532 28 l 1
 493 37 465 73 460 114 c 0
 454 160 479 211 547 241 c 1
 556 262 l 1
375 40 m 1
 385 53 l 1
 381 77 366 116 346 150 c 1
 340 143 l 1
 359 101 369 71 375 40 c 1
EndSplineSet
Validated: 33
Layer: 2
EndChar

StartChar: o
Encoding: 111 111 68
Width: 650
Flags: MW
HStem: -78 72 66 28 442 72 677 22
VStem: 364 26 566 72
LayerCount: 3
Back
Fore
SplineSet
618 295 m 2
 563 220 l 1
 612 140 l 1
 602 70 604 41 566 -5 c 0
 503 -79 414 -86 338 -74 c 1
 338 -59 338 -43 333 -30 c 1
 311 -30 288 -28 266 -24 c 1
 266 -14 l 2
 266 -2 268 13 264 22 c 1
 243 25 217 18 197 1 c 1
 188 66 l 1
 174 65 158 62 145 52 c 2
 129 38 l 1
 44 513 l 1
 61 672 212 727 350 686 c 1
 328 627 l 1
 468 700 l 1
 485 681 510 649 530 614 c 1
 591 548 678 380 618 295 c 2
488 281 m 1
 548 363 l 2
 601 435 524 597 463 668 c 1
 329 596 l 1
 390 521 421 453 345 351 c 1
 439 163 l 1
 351 116 l 1
 293 230 l 1
 216 150 l 1
 233 318 200 342 151 493 c 2
 146 508 l 1
 250 514 l 1
 316 670 l 1
 172 705 80 608 69 514 c 1
 146 83 l 1
 208 117 284 70 290 -3 c 1
 362 -12 441 -3 497 64 c 0
 533 107 532 143 539 197 c 1
 488 281 l 1
378 158 m 1
 406 173 l 1
 316 354 l 1
 368 421 374 469 353 516 c 1
 318 442 l 1
 223 437 l 1
 247 361 267 308 280 253 c 1
 299 273 l 1
 347 183 l 1
 356 192 l 1
 378 158 l 1
EndSplineSet
Validated: 33
Layer: 2
EndChar

StartChar: p
Encoding: 112 112 69
Width: 492
Flags: HMW
HStem: -59 72<165 227 120 295 165 165> -11 24<164 164> 421 236
VStem: 94 26 106 24 214 177 422 69
LayerCount: 3
Back
Fore
SplineSet
439 269 m 1xae
 404 284 l 1
 393 281 389 272 389 262 c 0
 389 236 417 197 424 197 c 1
 323 145 l 1
 294 206 l 1
 274 197 l 1
 285 104 l 1
 299 100 l 1
 284 72 l 1
 286 50 l 1
 341 33 l 1
 295 -59 l 1
 165 -59 l 1
 167 -52 168 -44 168 -36 c 0
 168 -26 167 -17 164 -11 c 1x6e
 89 -12 l 1
 92 1 94 12 94 21 c 0
 94 50 78 62 52 93 c 1
 68 104 94 110 96 129 c 2
 99 150 l 1
 103 199 106 253 106 310 c 0
 106 385 101 464 87 544 c 1
 44 624 l 1
 188 682 l 1
 189 667 191 652 191 637 c 0
 191 631 191 625 190 619 c 1
 245 647 l 2
 259 654 273 657 288 657 c 0
 339 657 391 619 421 565 c 1
 471 533 491 467 491 406 c 0
 491 343 470 283 439 269 c 1xae
345 357 m 1
 378 343 l 1
 405 359 422 405 422 456 c 0
 422 501 409 548 381 582 c 0
 359 608 327 626 284 626 c 0
 274 626 264 625 253 623 c 1
 157 575 l 1
 162 596 166 618 166 640 c 0
 166 642 166 644 166 646 c 1
 79 611 l 1
 111 553 l 1
 125 474 130 389 130 304 c 0
 130 241 127 177 122 117 c 1
 109 110 100 97 89 88 c 1
 107 67 120 50 120 22 c 0
 120 19 120 16 120 13 c 1x76
 227 13 l 1
 263 85 l 1
 214 101 l 1
 201 330 l 1
 217 278 246 240 268 222 c 1
 341 260 l 1
 328 275 316 298 316 319 c 0
 316 336 324 351 345 357 c 1
310 555 m 1
 344 414 l 1
 321 419 304 421 290 421 c 0
 254 421 244 404 214 364 c 1
 201 339 l 1
 181 523 l 1
 310 555 l 1
311 445 m 1
 304 472 l 1
 254 454 l 1
 256 436 l 1
 267 443 285 445 302 445 c 0
 305 445 308 445 311 445 c 1
EndSplineSet
Validated: 1
Layer: 2
EndChar

StartChar: q
Encoding: 113 113 70
Width: 664
Flags: MW
HStem: -180 109<524 676> -135 27<502 502> -64 75 -23 25<500 628> 182 27 442 72 677 22
VStem: 183 26 362 27 604 24
LayerCount: 3
Back
Fore
SplineSet
609 295 m 2x6fc0
 555 220 l 1
 604 140 l 1
 600 116 598 96 597 79 c 1
 499 40 l 1
 520 -1 l 1
 628 2 l 1x6fc0
 629 -29 637 -51 633 -72 c 1
 676 -71 l 1
 678 -129 687 -149 636 -180 c 1
 524 -180 l 1
 502 -135 l 1x9fc0
 456 -133 l 1
 418 -61 l 1
 331 -75 270 -46 241 -1 c 1
 211 12 182 35 161 67 c 1
 183 84 187 104 181 126 c 1
 174 125 170 131 163 125 c 1
 153 172 l 1
 139 182 124 187 111 176 c 2
 95 161 l 1
 35 514 l 1
 53 672 203 727 341 686 c 1
 315 624 l 1
 460 700 l 1
 475 682 490 660 509 628 c 1
 570 562 670 380 609 295 c 2x6fc0
280 232 m 1
 280 232 319 248 376 225 c 1
 377 224 l 1
 320 363 l 1
 374 433 370 484 343 529 c 1
 309 442 l 1
 214 437 l 1
 238 364 280 232 280 232 c 1
193 164 m 0
 209 135 218 90 195 63 c 1
 247 -3 339 5 408 27 c 1
 472 -108 l 1
 572 -108 l 1
 612 -82 606 -64 604 -23 c 1x5fc0
 500 -23 l 1
 420 106 l 1
 525 147 l 1
 526 162 528 179 531 197 c 1
 480 281 l 1
 539 363 l 2
 592 435 515 597 454 668 c 1
 321 597 l 1
 385 517 423 459 348 359 c 1
 429 163 l 1
 396 141 l 1
 361 203 l 1
 321 209 l 1
 346 152 331 178 364 129 c 1
 295 96 l 1
 244 253 l 1
 139 253 l 1
 203 317 199 331 171 411 c 0
 159 443 148 475 138 508 c 1
 241 514 l 1
 307 670 l 1
 163 705 72 608 60 514 c 1
 112 205 l 1
 145 219 177 192 193 164 c 0
EndSplineSet
Validated: 33
Layer: 2
EndChar

StartChar: r
Encoding: 114 114 71
Width: 603
Flags: MW
HStem: -235 72<495 559 445 631 495 495> -187 24<485 485> -59 72<169 237 115 311 169 169> -12 25<115 127 104 237> 551 26<134 134> 690 25
VStem: 144 25 481 73
LayerCount: 3
Back
Fore
SplineSet
485 -187 m 1x9f
 425 -188 l 1
 408 -102 394 -51 309 -16 c 1
 308 -31 309 -46 311 -59 c 1
 169 -59 l 1
 127 -12 l 1x5f
 104 -12 l 1
 43 53 l 1
 75 128 l 1
 125 133 l 1
 149 228 146 386 137 500 c 1
 115 504 l 1
 134 551 l 1
 35 552 l 1
 89 670 l 1
 327 709 l 2
 436 727 485 704 500 633 c 1
 545 614 558 564 553 487 c 1
 509 321 l 1
 485 316 l 1
 523 302 l 1
 511 253 l 1
 567 235 l 1
 496 22 l 1
 521 1 544 -23 559 -53 c 1
 606 -97 638 -170 631 -235 c 1
 495 -235 l 1
 492 -221 489 -203 485 -187 c 1x9f
237 13 m 1
 235 69 254 137 286 190 c 1
 256 285 l 1
 305 325 391 304 387 226 c 1
 321 8 l 1
 405 -24 429 -83 445 -163 c 1
 559 -163 l 1
 562 -78 491 21 407 37 c 1
 491 288 l 1
 319 357 l 1
 439 391 l 1
 481 549 l 1
 488 663 463 706 331 684 c 2
 106 648 l 1
 74 577 l 1
 155 577 l 1
 170 448 180 237 145 110 c 1
 92 104 l 1
 72 58 l 1
 115 13 l 1
 178 15 138 14 237 13 c 1
291 417 m 1
 325 431 l 2
 348 440 358 489 365 533 c 1
 322 520 286 506 276 478 c 1
 291 417 l 1
205 525 m 1
 209 555 l 2
 215 607 351 621 401 627 c 1
 404 575 394 427 332 407 c 2
 242 377 l 1
 205 525 l 1
EndSplineSet
Validated: 33
Layer: 2
EndChar

StartChar: s
Encoding: 115 115 72
Width: 705
Flags: MW
HStem: -61 71 -59 72<131 248.5 539 583 539 539> -13 23 157 26 614 25<221 471 221 221>
VStem: 135 24 232 27
LayerCount: 3
Back
Fore
SplineSet
671 491 m 1x9e
 701 243 l 1
 671 267 643 287 612 309 c 1
 583 264 l 1
 657 249 l 1
 586 133 l 1
 597 83 l 1
 639 65 l 1
 657 -59 l 1x3e
 539 -59 l 1
 528 -19 l 1
 484 -74 328 -59 169 -59 c 1
 179 -44 188 -26 194 -13 c 1x5e
 161 -12 129 -12 109 -12 c 2
 85 -12 l 1
 99 8 l 2
 177 125 110 166 70 156 c 2
 41 149 l 1
 126 290 l 1
 133 282 l 1
 229 515 l 1
 240 568 223 588 171 615 c 2
 125 639 l 1
 495 639 l 1
 494 625 l 2
 491 575 597 563 622 565 c 1
 625 542 639 501 633 493 c 1
 644 492 657 490 671 491 c 1x9e
625 331 m 1
 600 538 l 1
 526 536 480 581 471 614 c 1
 221 614 l 1
 252 589 268 559 253 509 c 2
 246 482 l 1
 168 299 l 1
 220 312 357 327 411 288 c 1
 448 192 410 147 317 120 c 1
 133 254 l 1
 91 183 l 1
 150 179 187 110 131 13 c 1x5e
 193 13 420 -6 459 49 c 2
 474 71 l 1
 488 13 l 1
 583 13 l 1
 568 116 l 1
 477 150 l 1
 577 301 l 1
 299 372 l 1
 304 451 l 1
 406 458 l 1
 427 401 l 1
 515 388 557 380 625 331 c 1
403 233 m 1
 348 239 270 238 217 224 c 1
 322 147 l 1
 382 166 409 189 403 233 c 1
209 229 m 1
 232 282 l 1
 206 279 178 273 155 268 c 1
 209 229 l 1
EndSplineSet
Validated: 33
Layer: 2
EndChar

StartChar: t
Encoding: 116 116 73
Width: 745
Flags: MW
HStem: -59 141<488 507 488 510> -11 24<274 274> 132 25<244 280 230 298 244 244> 339 72<112 188 76 244 112 112> 389 22<147 147> 399 73<516 578 516 516> 634 25<98 275 98 98 542 542 542 668>
VStem: 92 24 211 324 388 73 462 26 637 72
LayerCount: 3
Back
Fore
SplineSet
310 244 m 1x7370
 244 339 l 1
 112 339 l 1
 124 355 138 372 147 389 c 1x7390
 29 386 l 1
 100 492 109 520 64 659 c 1
 285 659 l 1
 329 616 l 1
 488 616 l 1
 532 659 l 1
 705 659 l 1
 697 638 687 613 680 587 c 1
 747 586 l 1
 720 519 683 395 738 333 c 1
 669 292 l 1
 663 313 651 335 646 361 c 1
 601 334 l 1
 595 355 585 377 578 399 c 1x6b70
 516 399 l 1
 444 327 446 241 505 200 c 1
 480 118 l 1
 485 106 487 96 488 82 c 1
 507 82 l 1
 545 56 542 -28 510 -59 c 1
 283 -59 l 1
 280 -34 279 -18 274 -11 c 1xa770
 211 -12 l 1x6b70
 210 4 212 37 193 42 c 0
 182 45 171 48 160 51 c 1
 230 157 l 1
 280 157 l 1
 310 244 l 1x7370
318 591 m 1
 275 634 l 1
 98 634 l 1
 125 544 125 486 76 411 c 1
 188 411 l 1
 208 463 l 1
 357 463 l 1
 281 333 l 1
 337 248 l 1
 298 132 l 1
 244 132 l 1
 199 66 l 1
 201 66 l 1
 227 58 231 38 234 13 c 1
 445 13 l 1
 469 42 468 108 443 129 c 1
 393 129 l 1
 430 255 l 1
 353 319 396 417 451 472 c 1x6770
 598 472 l 1
 591 427 601 411 616 371 c 1
 660 396 l 1
 616 461 644 569 668 634 c 1
 542 634 l 1
 499 591 l 1
 318 591 l 1
EndSplineSet
Validated: 33
Layer: 2
EndChar

StartChar: u
Encoding: 117 117 74
Width: 573
Flags: MW
HStem: -71 20
VStem: 75 24<108 124> 190 75 308 260 345 28 495 73
LayerCount: 3
Back
Fore
SplineSet
486 535 m 1xec
 496 543 l 1
 559 488 620 160 496 36 c 1
 438 30 401 -25 407 -71 c 1
 254 -51 l 1
 265 -13 l 1
 179 -1 l 1
 185 36 l 1
 147 56 l 1
 141 77 l 1
 75 108 l 1
 42 600 l 1
 51 603 l 1
 113 628 110 662 118 720 c 1
 295 598 l 1
 284 572 l 1
 312 546 l 1
 437 619 l 1
 460 599 473 570 486 535 c 1xec
310 159 m 1
 380 238 l 1
 353 264 333 299 308 328 c 1xf0
 344 387 355 397 337 460 c 0
 334 471 326 481 322 492 c 1
 276 382 l 1
 223 355 l 1
 265 317 271 261 260 196 c 1
 310 159 l 1
434 588 m 1
 341 534 l 1
 351 499 371 456 373 419 c 0xec
 374 391 361 369 339 331 c 1
 346 322 392 256 403 252 c 2
 420 245 l 1
 313 125 l 1
 229 192 l 1
 169 146 l 1
 184 209 188 243 190 308 c 0
 192 361 179 384 141 418 c 1
 206 451 l 1
 264 589 l 1
 137 677 l 1
 129 628 113 603 68 584 c 1
 99 124 l 1
 220 68 l 1
 209 20 l 1
 334 4 l 1
 336 51 374 100 430 108 c 1
 540 224 490 522 434 588 c 1
EndSplineSet
Validated: 33
Layer: 2
EndChar

StartChar: v
Encoding: 118 118 75
Width: 696
Flags: MW
HStem: -59 72<269 344 217 408 269 269> -11 24<248 248> 652 20G
LayerCount: 3
Back
Fore
SplineSet
706 477 m 1xa0
 626 321 l 1
 577 344 l 1
 433 30 l 1
 459 -28 l 1
 408 -59 l 1
 269 -59 l 1
 248 -11 l 1x60
 201 -12 l 1
 145 108 l 1
 192 145 l 1
 119 289 l 1
 145 353 134 333 154 384 c 1
 120 438 l 1
 89 419 l 1
 28 529 l 1
 190 642 l 1
 200 622 209 606 225 591 c 0
 244 572 265 550 284 531 c 1
 270 523 l 1
 282 509 295 502 323 474 c 1
 301 461 l 1
 336 420 l 1
 329 413 l 1
 352 392 l 1
 407 415 433 471 430 535 c 1
 412 547 397 564 382 579 c 1
 401 607 416 639 426 672 c 1
 453 654 612 552 647 549 c 2
 666 548 l 1
 642 502 l 1
 670 488 695 478 706 477 c 1xa0
560 398 m 1
 628 529 l 1
 581 545 485 604 439 634 c 1
 433 619 423 597 414 582 c 1
 426 570 438 558 454 551 c 1
 460 478 435 395 360 367 c 1
 369 343 383 321 391 296 c 1
 366 254 334 218 297 186 c 1
 240 289 l 1
 306 417 l 1
 218 523 l 1
 242 537 l 1
 226 552 216 562 208 571 c 0
 198 580 191 588 181 605 c 1
 61 522 l 1
 99 453 l 1
 153 484 l 1
 212 415 l 1
 147 289 l 1
 224 138 l 1
 176 101 l 1
 217 13 l 1
 344 13 l 1
 383 37 l 1
 360 90 l 1
 511 421 l 1
 560 398 l 1
364 299 m 1
 362 304 360 308 358 313 c 1
 321 249 l 1
 335 265 354 284 364 299 c 1
EndSplineSet
Validated: 33
Layer: 2
EndChar

StartChar: w
Encoding: 119 119 76
Width: 843
Flags: MW
HStem: -149 73<561 608 505 682 561 561> -59 72<310 357 255 425 310 310> 565 25<581 720 581 581>
VStem: 107 22 608 74<-149 -76>
LayerCount: 3
Back
Fore
SplineSet
813 233 m 1
 860 174 l 1
 670 -28 l 1
 682 -149 l 1
 561 -149 l 1
 546 -139 530 -122 519 -103 c 1
 497 -101 l 1
 471 -85 451 -62 437 -31 c 1
 425 -59 l 1
 310 -59 l 1
 297 -47 286 -25 272 -8 c 1
 245 -12 l 1
 182 47 131 145 112 228 c 1
 114 285 112 351 107 409 c 1
 83 393 l 1
 24 545 l 1
 191 758 l 1
 190 721 188 666 211 628 c 1
 238 661 l 1
 237 637 238 614 245 594 c 0
 249 593 257 593 261 592 c 2
 284 587 l 1
 266 563 l 1
 280 539 296 525 319 520 c 1
 267 471 l 1
 324 280 l 1
 407 382 l 1
 549 321 l 1
 534 285 l 1
 587 259 l 1
 543 146 l 1
 620 238 l 1
 563 317 506 395 447 472 c 1
 571 590 l 1
 789 590 l 1
 694 517 l 1
 814 517 l 1
 679 403 l 1
 707 369 l 1
 813 233 l 1
353 174 m 1
 394 222 l 1
 331 253 l 1
 353 174 l 1
597 37 m 1
 784 235 l 1
 599 464 l 1
 720 565 l 1
 581 565 l 1
 480 469 l 1
 652 237 l 1
 510 71 l 1
 467 194 l 1
 519 304 l 1
 416 352 l 1
 353 270 l 1
 434 229 l 1
 319 99 l 1
 192 535 l 1
 235 576 l 1
 200 594 175 637 167 688 c 1
 52 541 l 1
 95 431 l 1
 129 453 l 1
 135 379 140 304 137 230 c 1
 157 146 210 58 255 13 c 1
 357 13 l 1
 411 131 l 1
 428 75 457 -41 505 -76 c 1
 608 -76 l 1
 597 37 l 1
EndSplineSet
Validated: 33
Layer: 2
EndChar

StartChar: x
Encoding: 120 120 77
Width: 718
Flags: MW
HStem: -134 90<417 644 596 644> 13 99<71 183 65 189 65 189>
LayerCount: 3
Back
Fore
SplineSet
471 174 m 1
 474 168 489 62 502 -18 c 1
 685 -19 l 1
 646 -90 l 1
 725 -91 l 1
 664 -206 l 1
 468 -206 l 1
 457 -159 l 1
 399 -159 l 1
 338 31 l 1
 255 -59 l 1
 125 -59 l 1
 114 -48 118 -32 116 -10 c 1
 60 -12 l 1
 22 26 30 94 48 137 c 1
 172 137 l 1
 275 249 l 1
 254 323 l 1
 191 252 l 1
 155 321 l 1
 128 288 l 1
 50 470 l 1
 164 603 l 1
 210 568 l 1
 231 618 l 1
 364 581 l 1
 377 516 l 1
 413 512 l 1
 428 418 l 1
 461 455 l 1
 512 449 l 1
 419 625 l 1
 501 724 l 1
 692 673 l 1
 676 658 l 2
 667 649 660 638 655 625 c 1
 727 607 l 1
 655 538 696 362 727 333 c 1
 592 212 l 1
 549 258 l 1
 471 174 l 1
650 394 m 1
 620 441 591 584 645 660 c 1
 510 696 l 1
 449 622 l 1
 557 418 l 1
 470 429 l 1
 381 330 l 1
 342 562 l 1
 245 588 l 1
 220 529 l 1
 168 569 l 1
 79 466 l 1
 135 336 l 1
 237 459 l 1
 303 243 l 1
 183 112 l 1
 65 112 l 1
 53 77 56 33 71 13 c 1
 189 13 l 1
 327 162 l 1
 417 -134 l 1
 596 -134 l 1
 644 -44 l 1
 446 -43 l 1
 430 50 418 144 396 236 c 1
 489 336 l 1
 533 289 l 1
 650 394 l 1
EndSplineSet
Validated: 33
Layer: 2
EndChar

StartChar: y
Encoding: 121 121 78
Width: 712
Flags: MW
HStem: -59 72<311 395 261 458 311 311> -11 24<300 300> 150 25<229 315 229 229>
VStem: 470 72<-10 57>
LayerCount: 3
Back
Fore
SplineSet
663 607 m 1xb0
 718 558 l 1
 602 197 l 1
 487 246 l 1
 496 160 l 1
 502 108 l 1
 548 82 l 1
 542 -10 l 1
 458 -59 l 1
 311 -59 l 1
 300 -11 l 1x70
 241 -12 l 1
 198 175 l 1
 329 175 l 1
 307 268 l 2
 300 284 291 304 284 320 c 0
 277 337 265 360 241 420 c 1
 170 379 l 1
 145 444 l 1
 104 421 l 1
 30 595 l 1
 75 674 l 1
 129 629 l 1
 151 716 l 1
 323 635 l 1
 336 583 l 1
 372 566 l 1
 396 438 l 1
 475 430 l 1
 389 683 l 1
 506 772 l 1
 672 622 l 1
 663 607 l 1xb0
535 274 m 1
 643 614 l 1
 504 740 l 1
 419 674 l 1
 511 402 l 1
 399 411 l 1
 351 343 l 1
 301 618 l 1
 167 681 l 1
 143 584 l 1
 82 636 l 1
 58 594 l 1
 116 457 l 1
 229 520 l 1
 256 451 281 376 315 308 c 0
 320 299 326 286 330 276 c 2
 381 62 l 1
 320 84 l 1
 315 150 l 1
 229 150 l 1
 261 13 l 1
 395 13 l 1
 470 57 l 1
 475 135 l 1
 430 160 l 1
 412 326 l 1
 535 274 l 1
EndSplineSet
Validated: 1
Layer: 2
EndChar

StartChar: z
Encoding: 122 122 79
Width: 715
Flags: MW
HStem: -111 72<456 563 403 632 456 456> -64 25<435 435> -13 26<203 203> 622 25<101 432 101 101>
VStem: 132 25 159 27 595 37 595 72
LayerCount: 3
Back
Fore
SplineSet
239 239 m 1x7e
 101 354 l 1
 219 431 133 563 62 626 c 2
 37 647 l 1
 441 647 l 1
 634 500 l 1
 632 468 l 1
 681 434 l 1
 667 174 l 1x7d
 580 229 l 1
 528 194 l 1
 681 121 l 1
 653 82 l 1
 721 56 l 1
 667 -13 l 1
 632 -111 l 1xbe
 456 -111 l 1
 435 -64 l 1xbd
 326 -60 196 -62 196 -62 c 1
 196 -62 203 -26 203 -13 c 1
 120 -12 l 1
 145 69 133 83 57 122 c 1
 351 279 l 1
 239 239 l 1x7e
409 304 m 1
 436 383 l 1
 409 380 380 373 354 368 c 0
 348 366 343 365 338 365 c 2
 361 338 l 1
 409 304 l 1
432 622 m 1
 101 622 l 1
 177 543 225 421 143 352 c 1
 189 314 l 1
 329 356 l 1
 252 433 l 1
 300 441 349 456 398 457 c 0
 446 457 474 435 463 381 c 1
 429 286 l 1
 111 121 l 1
 158 90 163 54 153 13 c 1
 368 13 l 1
 403 -39 l 1
 563 -39 l 1
 596 53 l 1
 642 111 l 1
 494 176 l 1
 500 153 502 133 500 109 c 1
 228 109 l 1
 520 304 l 1
 595 256 l 1
 608 488 l 1
 432 622 l 1
EndSplineSet
Validated: 33
Layer: 2
EndChar
